<?xml version="1.0" encoding="UTF-8" standalone="no"?><!DOCTYPE svg PUBLIC "-//W3C//DTD SVG 1.1//EN" "http://www.w3.org/Graphics/SVG/1.1/DTD/svg11.dtd"><svg width="100%" height="100%" viewBox="0 0 620 128" version="1.1" xmlns="http://www.w3.org/2000/svg" xmlns:xlink="http://www.w3.org/1999/xlink" xml:space="preserve" xmlns:serif="http://www.serif.com/" style="fill-rule:evenodd;clip-rule:evenodd;stroke-linejoin:round;stroke-miterlimit:1.41421;"><path d="M620,13.28c0,-7.329 -5.951,-13.28 -13.28,-13.28l-593.44,0c-7.329,0 -13.28,5.951 -13.28,13.28l0,101.44c0,7.329 5.951,13.28 13.28,13.28l593.44,0c7.329,0 13.28,-5.951 13.28,-13.28l0,-101.44Z" style="fill:#fff;"/><g><path d="M261.642,77.933l0,-35.689l6.823,0l0,11.397c2.189,-2.061 4.721,-3.188 7.594,-3.381c0.376,-0.032 0.786,-0.048 1.231,-0.048c4.31,0 7.85,1.481 10.621,4.443c2.462,2.672 3.694,5.908 3.694,9.707c0,3.638 -1.112,6.809 -3.335,9.514c-2.6,3.123 -6.105,4.684 -10.518,4.684c-3.318,0 -6.088,-0.885 -8.312,-2.656c-0.537,-0.44 -1.05,-0.907 -1.539,-1.4l0,3.429l-6.259,0Zm14.674,-21.829c-2.942,0 -5.183,1.094 -6.721,3.284c-1.026,1.417 -1.54,3.074 -1.54,4.974c0,3.058 1.163,5.36 3.489,6.906c1.402,0.934 3.044,1.401 4.926,1.401c3.078,0 5.37,-1.143 6.875,-3.429c0.923,-1.385 1.385,-2.995 1.385,-4.83c0,-2.929 -1.129,-5.199 -3.386,-6.81c-1.437,-0.997 -3.113,-1.496 -5.028,-1.496Zm49.921,11.301l-22.011,0c0.616,2.382 2.189,3.976 4.72,4.78c0.958,0.323 2.002,0.484 3.13,0.484c2.326,0 4.207,-0.677 5.644,-2.029c0.205,-0.193 0.41,-0.402 0.615,-0.627l7.44,0c-0.41,1.19 -1.162,2.43 -2.257,3.718c-2.976,3.22 -6.739,4.829 -11.287,4.829c-4.516,0 -8.278,-1.448 -11.288,-4.346c-2.737,-2.64 -4.105,-5.828 -4.105,-9.562c0,-4.057 1.523,-7.454 4.566,-10.19c2.874,-2.608 6.346,-3.912 10.416,-3.912c4.515,0 8.175,1.513 10.979,4.54c2.463,2.672 3.694,5.956 3.694,9.852c0,0.869 -0.085,1.69 -0.256,2.463Zm-22.216,-5.651l15.751,0c-0.786,-3.155 -2.975,-4.91 -6.567,-5.264c-0.427,-0.033 -0.855,-0.049 -1.283,-0.048c-3.933,0 -6.498,1.594 -7.696,4.781c-0.068,0.161 -0.136,0.338 -0.205,0.531Zm30.373,16.179l0,-20.911l-3.335,0l0,-5.844l3.335,0l0,-8.934l6.825,0l0,8.934l4.104,0l0,5.844l-4.104,0l0,20.911l-6.825,0Zm45.304,-26.755l0,26.755l-6.259,0l0,-3.477c-2.258,2.415 -4.891,3.766 -7.902,4.056c-0.478,0.032 -0.991,0.048 -1.538,0.048c-4.481,0 -8.09,-1.496 -10.826,-4.491c-2.326,-2.575 -3.489,-5.715 -3.489,-9.417c0,-4.444 1.573,-8.017 4.721,-10.722c2.667,-2.253 5.917,-3.38 9.747,-3.38c3.729,0 6.687,1.223 8.876,3.671c0.137,0.16 0.274,0.337 0.411,0.53l0,-3.573l6.259,0Zm-14.827,5.264c-3.011,0 -5.285,1.127 -6.824,3.38c-0.992,1.417 -1.488,3.075 -1.488,4.975c0,2.994 1.197,5.199 3.591,6.616c1.368,0.837 2.976,1.256 4.823,1.256c2.703,0 4.772,-0.806 6.208,-2.415c1.266,-1.61 1.95,-3.445 2.052,-5.505c0,-3.06 -1.163,-5.361 -3.488,-6.906c-1.402,-0.934 -3.027,-1.401 -4.874,-1.401Zm26.114,16.661c-1.538,0 -2.821,1.208 -2.821,2.753c0,1.4 1.283,2.608 2.771,2.608c1.59,0 2.924,-1.159 2.924,-2.608c0,-1.497 -1.334,-2.753 -2.874,-2.753Zm33.812,-21.925l6.515,0l0,21.684c0,4.893 -0.957,8.515 -2.872,10.866c-2.737,3.252 -6.687,4.878 -11.852,4.878c-5.439,0 -9.612,-1.707 -12.519,-5.12c-0.866,-1.015 -1.575,-2.155 -2.103,-3.38l7.747,0c1.642,1.706 3.608,2.64 5.9,2.8c0.376,0.033 0.787,0.049 1.232,0.049c5.062,0 7.712,-2.849 7.952,-8.548c-2.19,2.414 -4.72,3.767 -7.593,4.057c-0.548,0.064 -1.13,0.096 -1.745,0.096c-4.378,0 -7.901,-1.529 -10.569,-4.588c-2.257,-2.608 -3.386,-5.811 -3.386,-9.61c0,-4.282 1.521,-7.759 4.566,-10.432c2.599,-2.253 5.747,-3.38 9.44,-3.38c4.105,0 7.201,1.336 9.287,4.008l0,-3.38Zm-8.517,5.264c-3.112,0 -5.371,1.208 -6.772,3.622c-0.753,1.32 -1.129,2.85 -1.129,4.588c0,3.316 1.266,5.667 3.796,7.051c1.198,0.644 2.6,0.966 4.208,0.966c3.215,0 5.54,-1.192 6.977,-3.574c0.752,-1.256 1.129,-2.737 1.129,-4.443c0,-3.156 -1.198,-5.473 -3.592,-6.954c-1.163,-0.741 -2.497,-1.16 -4.002,-1.256l-0.615,0Zm36.685,-5.892c4.446,0 8.14,1.465 11.082,4.394c2.736,2.706 4.104,5.973 4.104,9.805c0,3.766 -1.505,7.018 -4.515,9.755c-2.976,2.704 -6.516,4.056 -10.621,4.056c-4.207,0 -7.798,-1.4 -10.774,-4.201c-2.873,-2.737 -4.309,-6.005 -4.309,-9.804c0,-3.895 1.505,-7.211 4.514,-9.948c2.942,-2.705 6.448,-4.057 10.519,-4.057Zm0.05,5.892c-2.565,0 -4.686,0.982 -6.361,2.946c-1.232,1.481 -1.847,3.171 -1.847,5.07c0,2.737 1.077,4.927 3.232,6.569c1.471,1.094 3.146,1.642 5.028,1.642c2.634,0 4.771,-1.014 6.413,-3.043c1.197,-1.481 1.796,-3.171 1.796,-5.071c0,-2.608 -1.044,-4.733 -3.13,-6.375c-1.505,-1.158 -3.215,-1.738 -5.131,-1.738Zm46.843,-5.264l0,26.755l-6.311,0l0,-2.56c-1.983,1.835 -4.138,2.866 -6.464,3.091l-1.693,0.096c-3.831,0 -6.721,-1.32 -8.671,-3.96c-1.299,-1.803 -2.001,-4.25 -2.103,-7.34c-0.035,-0.515 -0.052,-1.095 -0.052,-1.739l0,-14.343l6.824,0l0,13.087c0,3.381 0.461,5.618 1.385,6.713c0.89,1.127 2.224,1.691 4.003,1.691c2.427,0 4.155,-0.821 5.181,-2.463c0.718,-1.031 1.078,-3.172 1.078,-6.423l0,-12.605l6.823,0Zm16.778,26.755l-11.442,-26.755l7.594,0l6.567,17.723l6.465,-17.723l7.696,0l-11.441,26.755l-5.439,0Zm20.708,-4.828c-1.449,0 -2.656,1.207 -2.656,2.751c0,1.4 1.207,2.608 2.607,2.608c1.497,0 2.752,-1.159 2.752,-2.608c0,-1.496 -1.255,-2.751 -2.703,-2.751Zm11.544,-18.656l5.316,0l-5.374,24.886c-1.402,6.426 -3.33,9.638 -5.842,9.638c-0.701,0 -1.169,-0.409 -1.169,-0.993c0,-0.175 0.059,-0.292 0.234,-0.584c0.234,-0.408 0.292,-0.643 0.292,-0.993c0,-1.285 -1.051,-2.278 -2.337,-2.278c-1.226,0 -2.161,1.109 -2.161,2.512c0,1.986 2.045,3.563 4.615,3.563c5.316,0 9.464,-5.842 12.034,-16.765l4.381,-18.986l6.485,0l0.35,-1.87l-6.367,0c1.752,-9.346 4.031,-13.494 7.302,-13.494c0.818,0 1.285,0.292 1.285,0.759c0,0.117 -0.058,0.292 -0.234,0.584c-0.292,0.468 -0.35,0.76 -0.35,1.227c0,1.403 0.876,2.337 2.161,2.337c1.344,0 2.512,-1.11 2.512,-2.395c0,-2.161 -2.161,-3.797 -5.082,-3.797c-2.863,0 -5.199,1.285 -7.361,4.031c-1.752,2.336 -2.979,5.024 -4.79,10.748l-5.491,0l-0.409,1.87Zm23.835,23.484c3.212,-10.223 4.206,-12.618 6.893,-17.116c2.044,-3.33 3.68,-5.141 4.673,-5.141c0.409,0 0.701,0.233 0.993,0.817c0.467,0.994 0.935,1.286 2.103,1.286c1.753,0 2.746,-1.052 2.746,-2.922c0,-1.868 -1.111,-3.037 -2.746,-3.037c-1.344,0 -2.979,0.877 -4.498,2.512c-2.454,2.453 -4.907,6.017 -5.842,8.296l-0.876,2.16l3.271,-12.851l-0.175,-0.117c-4.264,0.759 -4.907,0.877 -9.172,1.577l0,0.993c1.286,-0.233 1.519,-0.292 1.987,-0.292c1.285,0 2.044,0.584 2.044,1.636c0,0.759 -0.467,3.154 -0.934,4.907l-4.966,17.292l4.499,0Z" style="fill:#373c42;fill-rule:nonzero;"/><rect x="8.462" y="8" width="210.696" height="64.282" style="fill:#fff;fill-rule:nonzero;"/><path d="M176.713,119.928c-0.115,-0.043 -0.123,-0.158 -0.025,-0.41c0.122,-0.319 0.181,-0.345 0.657,-0.288c0.429,0.053 0.556,0.016 0.73,-0.217c0.348,-0.446 0.081,-0.768 -0.556,-0.662c-0.488,0.082 -0.488,0.077 -0.395,-0.257c0.29,-1.061 0.314,-1.002 -0.556,-1.159c-1.07,-0.197 -2.055,-0.716 -2.82,-1.489c-1.16,-1.16 -1.555,-2.332 -1.439,-4.218c0.059,-0.96 0.139,-1.335 0.476,-2.003c1.021,-2.044 3.365,-3.085 6.52,-2.899c0.685,0.04 1.543,0.146 1.926,0.233l0.684,0.158l0.07,2.273l-0.418,0c-0.243,0 -0.417,-0.068 -0.417,-0.157c0,-0.327 -0.847,-1.069 -1.439,-1.272c-0.766,-0.27 -2.251,-0.203 -3.005,0.123c-1.705,0.744 -2.483,2.668 -1.961,4.875c0.244,1.012 0.639,1.699 1.393,2.408c0.719,0.664 1.45,0.935 2.54,0.935c1.15,0 1.95,-0.417 2.46,-1.284c0.348,-0.585 0.464,-0.663 0.8,-0.472c0.151,0.089 0.151,0.292 0.012,1.227l-0.174,1.125l-0.626,0.191c-0.348,0.102 -1.137,0.226 -1.752,0.271c-1.079,0.067 -1.137,0.09 -1.137,0.36c0,0.213 0.081,0.293 0.313,0.293c0.452,0 0.882,0.315 0.986,0.731c0.116,0.484 -0.267,1.193 -0.765,1.429c-0.36,0.169 -1.775,0.237 -2.135,0.102l0.053,0.053Zm-81.506,-0.52c-1.183,-0.315 -2.204,-0.792 -3.434,-1.599l-1.055,-0.699l-1.636,-0.077c-1.822,-0.085 -2.459,-0.268 -3.632,-1.049c-2.598,-1.72 -2.691,-6.099 -0.174,-8.228c1.903,-1.607 5.233,-1.937 7.623,-0.76c3.237,1.589 3.585,6.277 0.638,8.734c-0.453,0.381 -0.894,0.693 -0.986,0.693c-0.278,0 2.947,1.59 3.887,1.916c1.044,0.36 2.25,0.407 3.143,0.123c0.65,-0.206 0.766,-0.18 0.87,0.194c0.07,0.22 -0.046,0.312 -0.696,0.585c-1.032,0.432 -3.19,0.513 -4.489,0.167l-0.059,0Zm-4.014,-3.821c2.297,-1.08 2.738,-4.544 0.859,-6.755c-1.74,-2.049 -4.792,-1.74 -5.94,0.604c-1.032,2.116 0.151,5.39 2.262,6.256c0.858,0.349 1.949,0.311 2.831,-0.105l-0.012,0Zm-72,1.281c-0.626,-0.247 -1.318,-1.018 -2.408,-2.689c-1.677,-2.572 -1.991,-2.95 -2.46,-2.95l-0.406,0l0.003,1.393c0.006,2.538 0.29,3.405 1.176,3.607c0.236,0.053 0.329,0.16 0.329,0.381l0,0.307l-5.615,0l0,-0.281c0,-0.214 0.105,-0.316 0.429,-0.406c0.238,-0.056 0.561,-0.27 0.72,-0.461c0.282,-0.338 0.288,-0.462 0.288,-5.144c0,-4.683 -0.006,-4.807 -0.288,-5.145c-0.159,-0.191 -0.482,-0.393 -0.72,-0.461c-0.313,-0.079 -0.429,-0.18 -0.429,-0.383c0,-0.269 0.014,-0.269 3.478,-0.349c3.687,-0.078 4.499,-0.022 5.538,0.44c0.908,0.393 1.666,1.598 1.667,2.645c0.002,1.204 -0.987,2.555 -2.292,3.14l-0.684,0.304l1.512,2.038c1.775,2.408 2.331,3.05 2.853,3.298c0.488,0.224 0.534,0.731 0.082,0.833c-0.557,0.135 -2.355,0.078 -2.773,-0.091l0,-0.026Zm-3.426,-6.889c1.836,-0.46 2.456,-2.762 1.067,-3.962c-0.654,-0.562 -1.347,-0.768 -2.234,-0.658l-0.673,0.084l0,4.674l0.65,0c0.359,0 0.904,-0.062 1.195,-0.138l-0.005,0Zm31.563,6.889c-0.751,-0.24 -1.458,-0.672 -1.833,-1.114c-0.681,-0.807 -0.753,-1.23 -0.761,-4.508c-0.009,-3.426 -0.081,-3.805 -0.777,-4.095c-0.279,-0.117 -0.443,-0.276 -0.446,-0.433c-0.002,-0.236 0.088,-0.248 2.326,-0.248c2.324,0 2.33,0 2.33,0.279c0,0.187 -0.081,0.278 -0.251,0.278c-0.137,0 -0.399,0.144 -0.582,0.319l-0.332,0.319l0,3.359c0,3.161 0.017,3.388 0.284,3.847c0.418,0.721 1.253,1.089 2.323,1.032c1.149,-0.063 1.775,-0.431 2.227,-1.324c0.348,-0.685 0.36,-0.718 0.36,-3.726c0,-2.69 -0.023,-3.07 -0.243,-3.365c-0.14,-0.184 -0.395,-0.369 -0.58,-0.41c-0.221,-0.048 -0.348,-0.166 -0.348,-0.312c0,-0.217 0.127,-0.233 1.844,-0.233c1.717,0 1.845,0.016 1.845,0.233c0,0.146 -0.128,0.264 -0.336,0.311c-0.639,0.134 -0.685,0.405 -0.755,3.973l-0.07,3.343l-0.417,0.72c-0.487,0.856 -1.276,1.453 -2.285,1.723c-0.859,0.225 -2.866,0.236 -3.551,0.011l0.028,0.021Zm53.428,0c-0.759,-0.243 -1.459,-0.673 -1.847,-1.132c-0.646,-0.766 -0.739,-1.328 -0.747,-4.556c-0.012,-3.354 -0.093,-3.738 -0.778,-4.03c-0.289,-0.116 -0.452,-0.275 -0.452,-0.432c-0.011,-0.236 0.081,-0.248 2.32,-0.248c2.298,0 2.321,0.003 2.321,0.27c0,0.18 -0.105,0.282 -0.302,0.309c-0.162,0.023 -0.43,0.197 -0.58,0.389c-0.267,0.326 -0.29,0.529 -0.336,3.239c-0.059,3.329 0.046,4.031 0.673,4.608c1.125,1.047 3.48,0.754 4.141,-0.507c0.418,-0.799 0.522,-1.789 0.476,-4.413c-0.058,-2.769 -0.151,-3.117 -0.871,-3.275c-0.22,-0.045 -0.348,-0.158 -0.348,-0.303c0,-0.215 0.128,-0.226 1.845,-0.226c1.717,0 1.856,0.022 1.856,0.237c0,0.146 -0.162,0.292 -0.405,0.382c-0.221,0.09 -0.453,0.248 -0.511,0.36c-0.058,0.113 -0.139,1.711 -0.185,3.558l-0.082,3.354l-0.417,0.731c-0.488,0.856 -1.277,1.453 -2.298,1.722c-0.858,0.237 -2.865,0.248 -3.55,0.023l0.077,-0.06Zm43.363,-0.003c-0.548,-0.216 -1.198,-0.948 -2.206,-2.482c-1.302,-1.981 -1.451,-2.161 -1.79,-2.161c-0.301,-0.003 -0.307,0.022 -0.307,1.546c0,1.848 0.17,2.37 0.816,2.486c0.324,0.059 0.417,0.14 0.417,0.369l0,0.293l-4.659,0l0,-0.293c0,-0.229 0.092,-0.31 0.418,-0.369c0.781,-0.14 0.835,-0.475 0.788,-4.778l-0.041,-3.811l-0.332,-0.319c-0.182,-0.175 -0.444,-0.319 -0.582,-0.319c-0.154,0 -0.25,-0.09 -0.25,-0.236c0,-0.203 0.14,-0.248 1.01,-0.322c0.556,-0.056 2.076,-0.068 3.387,-0.045c2.135,0.033 2.448,0.067 2.959,0.315c0.905,0.428 1.415,1.272 1.415,2.33c0,1.013 -0.638,1.902 -1.81,2.499c-0.371,0.191 -0.615,0.383 -0.534,0.427c0.082,0.046 0.685,0.811 1.346,1.711c1.3,1.767 2.019,2.556 2.321,2.556c0.266,0 0.243,0.574 -0.023,0.664c-0.384,0.135 -1.891,0.067 -2.321,-0.102l-0.022,0.041Zm-2.531,-5.816c0.544,-0.254 1.079,-0.865 1.178,-1.347c0.131,-0.619 -0.174,-1.43 -0.696,-1.88c-0.484,-0.406 -0.951,-0.529 -1.761,-0.439l-0.493,0.056l0,3.804l0.692,0c0.371,0 0.858,-0.078 1.078,-0.18l0.002,-0.014Zm60.977,5.794c-0.409,-0.1 -0.77,-0.202 -0.8,-0.23c-0.029,-0.022 -0.13,-0.574 -0.221,-1.227l-0.169,-1.182l0.386,0c0.213,0 0.387,0.045 0.387,0.101c0,0.327 0.899,1.273 1.42,1.498c1.409,0.619 3.101,0.033 3.1,-1.058c0,-0.721 -0.388,-1.149 -1.708,-1.891c-1.851,-1.047 -2.567,-1.599 -2.935,-2.274c-0.371,-0.664 -0.435,-1.711 -0.158,-2.466c0.184,-0.495 1.044,-1.249 1.769,-1.531c0.729,-0.292 3.012,-0.281 3.956,0.012l0.719,0.225l0,2.207l-0.394,0c-0.309,0 -0.415,-0.068 -0.483,-0.305c-0.142,-0.517 -0.877,-1.159 -1.492,-1.306c-1.635,-0.393 -2.957,1.126 -1.925,2.229c0.197,0.214 1.09,0.833 1.984,1.385c1.74,1.058 2.378,1.643 2.598,2.33c0.476,1.531 -0.313,2.893 -2.006,3.456c-0.906,0.315 -2.867,0.337 -4.015,0.056l-0.013,-0.029Zm-179.468,-0.258c0,-0.221 0.077,-0.286 0.332,-0.286c0.197,0 0.449,-0.135 0.617,-0.327c0.273,-0.312 0.283,-0.467 0.283,-4.209c0,-2.717 -0.058,-3.968 -0.162,-4.156c-0.209,-0.347 -0.534,-0.571 -0.836,-0.574c-0.162,-0.004 -0.243,-0.105 -0.243,-0.315l0,-0.309l8.226,0l0,2.612l-0.361,-0.038c-0.278,-0.03 -0.405,-0.143 -0.522,-0.462c-0.278,-0.736 -0.73,-0.925 -2.354,-0.98l-1.439,-0.047l0,3.521l1.102,-0.056c1.195,-0.065 1.799,-0.327 1.88,-0.822c0.023,-0.196 0.138,-0.266 0.406,-0.266l0.36,0l0,3.219l-0.372,0c-0.301,0 -0.383,-0.056 -0.383,-0.293c0,-0.552 -0.464,-0.754 -1.798,-0.799l-1.218,-0.045l0,1.745c0,2.093 0.012,2.127 1.578,2.127c1.542,0 2.343,-0.349 2.749,-1.204c0.198,-0.428 0.673,-0.552 0.824,-0.214c0.093,0.225 -0.29,1.677 -0.58,2.184l-0.209,0.36l-3.968,-0.023l-3.967,-0.023l0,-0.281l0.055,-0.039Zm10.549,0.038c0,-0.225 0.092,-0.31 0.393,-0.366c0.72,-0.13 0.755,-0.315 0.802,-4.285c0.045,-4.134 -0.012,-4.507 -0.766,-4.821c-0.314,-0.131 -0.441,-0.271 -0.453,-0.475l0,-0.291l3.11,0.053c3.364,0.056 3.642,0.112 4.559,0.798c0.998,0.766 1.265,2.285 0.58,3.411c-0.592,0.991 -1.624,1.509 -3.248,1.655l-0.859,0.079l-0.209,-0.473l-0.22,-0.473l0.499,-0.068c0.637,-0.078 1.333,-0.449 1.705,-0.9c0.209,-0.247 0.29,-0.518 0.279,-0.991c-0.023,-1.204 -0.766,-1.936 -2.077,-2.037l-0.743,-0.056l0.035,4.131c0.047,4.502 0.069,4.626 0.835,4.773c0.278,0.056 0.371,0.146 0.371,0.371l0,0.293l-4.652,0l0,-0.293l0.059,-0.035Zm22.738,-0.045c0,-0.191 0.081,-0.279 0.255,-0.279c0.14,0 0.407,-0.107 0.581,-0.236l0.325,-0.237l0.034,-3.831c0.047,-4.289 -0.011,-4.613 -0.8,-4.881c-0.255,-0.084 -0.418,-0.23 -0.418,-0.36c0,-0.201 0.186,-0.226 2.088,-0.253c3.991,-0.058 4.838,-0.018 5.488,0.266c0.835,0.369 1.23,0.901 1.3,1.768c0.023,0.39 0.011,0.846 -0.036,1.013c-0.138,0.483 -0.777,1.078 -1.484,1.373l-0.662,0.272l0.558,0.149c1.298,0.342 2.152,1.607 1.983,2.939c-0.151,1.125 -0.684,1.767 -1.938,2.285c-0.66,0.27 -0.835,0.281 -4.002,0.281l-3.282,0l0,-0.281l0.01,0.012Zm6.034,-0.93c0.695,-0.422 0.974,-0.995 0.892,-1.858c-0.115,-1.295 -1.125,-2.066 -2.702,-2.066l-0.836,0l0.035,1.867c0.035,1.787 0.058,1.875 0.359,2.101c0.465,0.345 1.613,0.323 2.216,-0.044l0.036,0Zm-0.569,-5.137c0.835,-0.293 1.276,-0.886 1.195,-1.606c-0.116,-0.968 -0.986,-1.507 -2.425,-1.507l-0.824,0l0,3.338l0.72,-0.007c0.394,-0.003 0.986,-0.101 1.322,-0.218l0.012,0Zm5.615,6.074c0,-0.199 0.093,-0.282 0.36,-0.309c0.197,-0.022 0.487,-0.191 0.649,-0.388c0.279,-0.338 0.29,-0.484 0.29,-4.142c0,-3.039 -0.046,-3.853 -0.197,-4.101c-0.243,-0.386 -0.557,-0.608 -0.87,-0.614c-0.162,-0.011 -0.243,-0.101 -0.243,-0.292c0,-0.282 0,-0.282 2.459,-0.282c2.459,0 2.459,0 2.459,0.271c0,0.191 -0.081,0.27 -0.266,0.27c-0.151,0 -0.441,0.135 -0.65,0.293l-0.348,0.326l-0.046,3.894l-0.036,3.895l0.348,0.203c0.28,0.157 0.569,0.191 1.416,0.146c1.299,-0.067 1.914,-0.36 2.274,-1.091c0.232,-0.485 0.499,-0.597 0.858,-0.395c0.128,0.079 0.105,0.304 -0.104,1.07c-0.151,0.529 -0.371,1.103 -0.487,1.261l-0.221,0.292l-3.828,-0.045l-3.828,-0.045l0,-0.27l0.011,0.053Zm9.583,0.038c0,-0.229 0.093,-0.31 0.417,-0.369c0.754,-0.135 0.813,-0.473 0.813,-4.618c0,-3.442 -0.023,-3.707 -0.267,-4.08c-0.151,-0.219 -0.429,-0.434 -0.615,-0.477c-0.244,-0.045 -0.348,-0.158 -0.348,-0.338c0,-0.259 0.035,-0.259 2.332,-0.259c2.297,0 2.32,0.012 2.32,0.27c0,0.18 -0.116,0.293 -0.336,0.349c-0.233,0.073 -0.437,0.219 -0.581,0.417c-0.219,0.304 -0.243,0.709 -0.243,4.109c0,4.198 0.058,4.536 0.765,4.671c0.291,0.056 0.384,0.146 0.384,0.371l0,0.293l-4.653,0l0,-0.293l0.012,-0.046Zm32.74,-0.023c0,-0.202 0.104,-0.29 0.417,-0.346c0.754,-0.135 0.812,-0.473 0.812,-4.631c0,-3.642 -0.011,-3.7 -0.313,-4.114c-0.174,-0.23 -0.453,-0.439 -0.615,-0.46c-0.22,-0.027 -0.301,-0.123 -0.301,-0.339l0,-0.301l8.074,0l0,1.298c0,1.283 -0.011,1.295 -0.336,1.295c-0.267,0 -0.348,-0.08 -0.418,-0.429c-0.163,-0.731 -0.719,-0.978 -2.355,-1.035l-1.38,-0.045l-0.093,0.586c-0.047,0.314 -0.093,1.114 -0.093,1.756l0,1.17l1.16,-0.068c1.276,-0.078 1.787,-0.281 1.926,-0.776c0.058,-0.225 0.174,-0.315 0.406,-0.315l0.325,0l0,3.207l-0.337,0c-0.232,0 -0.348,-0.067 -0.348,-0.213c-0.011,-0.619 -0.673,-0.901 -2.053,-0.901l-1.126,0l0.047,1.734c0.058,2.105 0.046,2.093 1.682,2.093c1.45,0 2.204,-0.315 2.599,-1.08c0.197,-0.394 0.348,-0.529 0.568,-0.529c0.163,0 0.348,0.056 0.395,0.135c0.127,0.18 -0.488,2.195 -0.731,2.409c-0.163,0.146 -0.859,0.169 -4.084,0.146l-3.887,-0.023l0,-0.269l0.059,0.045Zm15.07,0.03c0,-0.203 0.127,-0.338 0.429,-0.464c0.244,-0.096 0.557,-0.333 0.719,-0.525c0.279,-0.338 0.279,-0.491 0.279,-5.008c0,-5.245 -0.012,-5.301 -0.963,-5.582c-0.371,-0.113 -0.487,-0.214 -0.487,-0.451l0,-0.303l9.582,0l0,3.095l-0.417,0c-0.336,0 -0.417,-0.057 -0.417,-0.281c0,-0.462 -0.511,-1.081 -1.068,-1.295c-0.325,-0.124 -1.067,-0.225 -2.042,-0.259l-1.543,-0.056l0,4.232l1.125,-0.011c1.509,-0.011 2.019,-0.18 2.344,-0.765c0.208,-0.384 0.325,-0.473 0.649,-0.473l0.406,0l0,3.725l-0.44,-0.045c-0.302,-0.033 -0.464,-0.123 -0.511,-0.292c-0.22,-0.732 -1.055,-1.059 -2.726,-1.059l-0.882,0l0.059,2.196c0.057,2.499 0.174,2.87 0.997,3.129c0.36,0.113 0.476,0.225 0.476,0.439l0,0.281l-5.616,0l0,-0.281l0.047,0.053Zm21.916,-0.023c0,-0.225 0.069,-0.308 0.266,-0.308c0.418,0 0.893,-0.771 1.937,-3.118c1.393,-3.147 2.715,-6.345 2.715,-6.574c0,-0.154 0.14,-0.198 0.65,-0.195l0.649,0.002l1.846,4.274c2.006,4.641 2.378,5.362 2.842,5.549c0.185,0.073 0.302,0.228 0.302,0.4c0,0.281 0,0.281 -2.333,0.281l-2.332,0l0,-0.295c0,-0.225 0.093,-0.31 0.407,-0.367c0.592,-0.105 0.626,-0.465 0.174,-1.688l-0.395,-1.05l-3.237,0l-0.324,0.866c-0.418,1.092 -0.395,1.835 0.057,1.903c0.221,0.033 0.302,0.123 0.302,0.337l0,0.304l-3.562,0l0,-0.304l0.036,-0.017Zm6.299,-4.328c0,-0.18 -1.01,-2.656 -1.09,-2.656c-0.058,0 -0.198,0.236 -0.314,0.529l-0.58,1.362l-0.348,0.833l1.161,0c0.637,0 1.159,-0.022 1.159,-0.056l0.012,-0.012Zm5.893,4.345c0,-0.214 0.093,-0.304 0.371,-0.36c0.743,-0.135 0.766,-0.304 0.824,-4.345c0.059,-4.165 0,-4.514 -0.8,-4.783c-0.243,-0.08 -0.417,-0.226 -0.417,-0.361c0,-0.192 0.151,-0.214 1.543,-0.214l1.531,0l0.893,1.024c0.488,0.564 1.752,1.936 2.808,3.062c0.751,0.798 1.494,1.605 2.227,2.42l0.314,0.372l-0.047,-2.792c-0.046,-3.039 -0.127,-3.354 -0.859,-3.523c-0.22,-0.045 -0.348,-0.169 -0.348,-0.315c0,-0.214 0.128,-0.237 1.845,-0.237c1.741,0 1.845,0.023 1.845,0.248c0,0.158 -0.116,0.259 -0.302,0.281c-0.162,0.023 -0.429,0.203 -0.58,0.395c-0.279,0.337 -0.29,0.506 -0.336,4.918l-0.047,4.571l-0.603,0c-0.545,0 -0.649,-0.045 -1.056,-0.518c-0.371,-0.417 -6.172,-6.911 -6.393,-7.137c-0.034,-0.034 -0.034,1.328 0,3.028c0.059,3.456 0.151,3.861 0.802,3.985c0.301,0.056 0.393,0.135 0.393,0.36l0,0.293l-3.689,0l0,-0.293l0.081,-0.079Zm23.969,-0.011c0,-0.18 0.07,-0.304 0.186,-0.304c0.267,0 0.777,-0.574 1.137,-1.306c0.499,-1.002 2.843,-6.461 3.248,-7.564l0.372,-1.025l1.229,0.091l1.81,4.209c0.998,2.32 1.926,4.402 2.065,4.638c0.302,0.552 0.754,0.991 0.987,0.991c0.104,0 0.185,0.135 0.185,0.315l0,0.315l-4.664,0l0,-0.315c0,-0.214 0.07,-0.304 0.244,-0.304c0.661,0 0.719,-0.518 0.22,-1.88l-0.359,-0.956l-3.214,0l-0.29,0.833c-0.546,1.576 -0.522,2.014 0.127,2.014c0.186,0 0.256,0.091 0.256,0.315l0,0.316l-3.561,0l0,-0.316l0.022,-0.067Zm5.813,-5.526c-0.267,-0.698 -0.511,-1.351 -0.557,-1.453c-0.046,-0.113 -0.325,0.36 -0.685,1.182c-0.336,0.754 -0.603,1.407 -0.603,1.452c0,0.057 0.51,0.101 1.149,0.101l1.148,0l-0.475,-1.26l0.023,-0.022Zm6.242,5.537c0,-0.236 0.069,-0.304 0.312,-0.304c0.174,0 0.441,-0.112 0.581,-0.259c0.232,-0.236 0.255,-0.529 0.29,-4.108c0.023,-2.117 0.012,-3.973 -0.035,-4.12c-0.093,-0.349 -0.603,-0.777 -0.917,-0.777c-0.174,0 -0.255,-0.089 -0.255,-0.269c0,-0.271 0,-0.271 2.321,-0.271c2.239,0 2.332,0.011 2.332,0.247c0,0.158 -0.151,0.316 -0.407,0.406c-0.22,0.09 -0.452,0.315 -0.533,0.495c-0.198,0.473 -0.314,4.334 -0.186,6.416c0.082,1.452 0.139,1.801 0.36,2.016c0.139,0.145 0.371,0.258 0.51,0.258c0.174,0 0.244,0.09 0.244,0.315l0,0.316l-4.653,0l0,-0.316l0.036,-0.045Zm15.337,-0.022c0,-0.214 0.081,-0.282 0.336,-0.282c0.197,0 0.441,-0.135 0.615,-0.326c0.267,-0.315 0.278,-0.462 0.278,-4.21c0,-2.713 -0.046,-3.962 -0.162,-4.153c-0.209,-0.338 -0.534,-0.564 -0.835,-0.575c-0.162,0 -0.244,-0.101 -0.244,-0.315l0,-0.303l8.214,0l0,2.611l-0.36,-0.034c-0.267,-0.023 -0.394,-0.135 -0.511,-0.461c-0.266,-0.732 -0.718,-0.923 -2.354,-0.98l-1.439,-0.045l0,3.489l0.859,0c1.183,-0.011 1.763,-0.202 2.019,-0.697c0.15,-0.293 0.289,-0.394 0.545,-0.394l0.336,0l0,3.207l-0.348,0c-0.313,0 -0.383,-0.056 -0.383,-0.292c0,-0.551 -0.452,-0.754 -1.798,-0.799l-1.218,-0.045l0,1.733c0,2.094 0.023,2.128 1.589,2.128c1.543,0 2.344,-0.349 2.75,-1.205c0.197,-0.427 0.673,-0.551 0.823,-0.214c0.094,0.225 -0.29,1.678 -0.579,2.184l-0.21,0.361l-3.967,-0.023l-3.968,-0.022l0,-0.293l0.012,-0.045Zm-183.524,-11.291l-0.334,-0.234l0.815,-1.114c0.448,-0.619 0.901,-1.126 1.009,-1.126c0.462,0 1.938,0.282 1.901,0.372c-0.074,0.178 -2.778,2.352 -2.918,2.349c-0.075,0 -0.288,-0.106 -0.472,-0.236l-0.001,-0.011Zm-17.403,-8.542l208.643,0l0,1.109l-208.645,0l0,-1.112l0.002,0.003Zm79.408,-2.532c-1.096,-0.354 -1.713,-1.272 -1.513,-2.263c0.138,-0.664 0.556,-1.132 1.299,-1.44l0.65,-0.271l-0.395,-0.202c-0.221,-0.118 -0.395,-0.312 -0.395,-0.451c0,-0.225 1.01,-1.125 1.253,-1.125c0.059,0 -0.022,-0.206 -0.185,-0.458c-0.696,-1.073 -0.14,-2.625 1.172,-3.232c0.708,-0.33 0.951,-0.344 3.434,-0.201c1.426,0.084 1.485,0.098 1.403,0.349c-0.034,0.147 -0.069,0.307 -0.081,0.359c0,0.05 -0.232,0.092 -0.533,0.092l-0.534,0l0.069,0.718c0.163,1.568 -1.078,2.642 -3.074,2.671c-1.033,0.015 -1.531,0.214 -1.126,0.448c0.117,0.065 0.79,0.287 1.486,0.493c2.273,0.664 2.691,0.998 2.598,2.06c-0.092,1.109 -1.079,2.071 -2.505,2.459c-0.813,0.222 -2.286,0.22 -2.982,-0.004l-0.041,-0.002Zm3.05,-0.765c1.112,-0.499 1.593,-1.453 0.987,-1.948c-0.411,-0.335 -2.191,-0.849 -2.653,-0.765c-0.939,0.168 -1.821,1.204 -1.658,1.947c0.22,1.024 1.891,1.41 3.317,0.767l0.007,-0.001Zm0.367,-5.595c0.835,-0.457 1.16,-1.762 0.603,-2.406c-0.765,-0.882 -2.228,0.102 -2.239,1.509c0,0.437 0.07,0.591 0.383,0.833c0.464,0.36 0.719,0.371 1.277,0.067l-0.024,-0.003Zm5.197,2.87c-0.603,-0.113 -0.916,-0.473 -0.985,-1.115c-0.174,-1.642 1.356,-4.056 3.074,-4.834c0.893,-0.405 2.656,-0.446 3.828,-0.09c0.104,0.034 0.036,0.456 -0.244,1.325c-0.522,1.7 -0.834,3.401 -0.66,3.695c0.115,0.192 0.197,0.207 0.568,0.093c0.336,-0.113 0.452,-0.101 0.546,0.034c0.196,0.281 0.081,0.382 -0.709,0.63c-1.044,0.326 -1.531,0.259 -1.693,-0.225l-0.117,-0.383l-0.556,0.282c-0.94,0.483 -2.239,0.731 -3.017,0.585l-0.035,0.003Zm2.368,-1.111c0.405,-0.171 0.811,-0.433 0.928,-0.585c0.185,-0.251 0.742,-2.105 0.963,-3.186c0.092,-0.442 0.081,-0.457 -0.418,-0.582c-0.917,-0.234 -1.845,0.372 -2.576,1.689c-0.766,1.373 -0.962,2.602 -0.464,2.921c0.348,0.219 0.557,0.18 1.589,-0.259l-0.022,0.002Zm64.864,1.075c-0.615,-0.135 -0.824,-0.326 -0.999,-0.889c-0.255,-0.855 0.337,-2.473 1.347,-3.669c1.206,-1.43 2.541,-1.915 4.513,-1.633c0.522,0.074 0.985,0.175 1.032,0.222c0.059,0.045 -0.116,0.836 -0.383,1.756c-0.255,0.917 -0.487,2.029 -0.498,2.472l-0.024,0.808l0.58,-0.022c0.522,-0.023 0.581,0.011 0.581,0.258c0,0.237 -0.129,0.315 -0.789,0.496c-1.079,0.304 -1.59,0.236 -1.648,-0.203c-0.023,-0.18 -0.069,-0.338 -0.093,-0.338c-0.023,0 -0.382,0.136 -0.789,0.293c-0.649,0.259 -1.983,0.596 -2.25,0.563c-0.047,0 -0.291,-0.056 -0.534,-0.102l-0.046,-0.012Zm2.297,-1.058c0.336,-0.157 0.719,-0.382 0.847,-0.506c0.301,-0.316 0.847,-1.925 1.137,-3.343c0.081,-0.384 0.058,-0.406 -0.464,-0.53c-0.441,-0.112 -0.627,-0.101 -1.021,0.068c-0.87,0.371 -1.729,1.632 -2.182,3.185c-0.429,1.489 0.105,1.84 1.706,1.119l-0.023,0.007Zm-148.57,0.776c-0.035,-0.157 0.209,-1.305 0.546,-2.554c0.672,-2.466 0.672,-2.668 -0.07,-2.477c-0.36,0.09 -0.395,0.068 -0.395,-0.18c0,-0.236 0.128,-0.315 0.789,-0.493c0.429,-0.113 1.009,-0.22 1.265,-0.236c0.452,-0.027 0.487,-0.003 0.522,0.387c0.023,0.228 -0.209,1.359 -0.522,2.51c-0.314,1.155 -0.534,2.184 -0.488,2.29c0.07,0.151 0.209,0.173 0.708,0.106c0.592,-0.083 0.627,-0.073 0.58,0.196c-0.035,0.226 -0.209,0.326 -0.8,0.495c-0.407,0.113 -1.044,0.215 -1.404,0.215c-0.557,0 -0.65,-0.035 -0.72,-0.271l-0.011,0.012Zm5.267,0.057l-0.313,-0.237l1.067,-4.209c0.58,-2.316 1.045,-4.367 1.021,-4.564c-0.046,-0.363 -0.093,-0.382 -0.626,-0.236c-0.256,0.071 -0.302,0.038 -0.302,-0.225c0,-0.361 0.487,-0.535 1.822,-0.653c0.765,-0.068 0.788,-0.064 0.788,0.225c0,0.165 -0.208,1.182 -0.475,2.261c-0.267,1.08 -0.476,2.031 -0.476,2.119c0,0.124 0.151,0.101 0.592,-0.074c1.531,-0.608 2.854,-0.574 3.341,0.079c0.452,0.619 0.22,2.206 -0.51,3.511c-0.371,0.687 -1.497,1.746 -2.112,1.993c-0.8,0.326 -3.33,0.338 -3.782,0l-0.035,0.01Zm3.469,-0.788c0.696,-0.439 1.462,-1.925 1.671,-3.231c0.22,-1.316 -0.743,-1.576 -2.274,-0.618c-0.318,0.194 -0.569,0.481 -0.719,0.822c-0.244,0.607 -0.755,2.577 -0.755,2.928c0,0.518 1.335,0.579 2.088,0.09l-0.011,0.009Zm5.232,0.631c-0.371,-0.349 -0.394,-0.451 -0.394,-1.273c0.023,-2.089 1.334,-3.956 3.144,-4.469c0.905,-0.258 1.705,-0.168 2.239,0.242c0.313,0.239 0.371,0.388 0.371,0.893c0,1.272 -1.276,2.24 -3.132,2.353c-0.534,0.033 -1.021,0.124 -1.067,0.199c-0.151,0.212 -0.117,0.923 0.057,1.227c0.349,0.586 0.836,0.602 2.008,0.057c0.73,-0.338 0.881,-0.372 0.998,-0.214c0.243,0.345 0.127,0.454 -0.929,0.905c-0.882,0.374 -1.218,0.451 -1.96,0.451c-0.813,0 -0.929,-0.032 -1.3,-0.378l-0.035,0.007Zm2.46,-2.972c1.172,-0.293 1.938,-1.419 1.346,-1.959c-0.372,-0.339 -0.72,-0.328 -1.207,0.04c-0.383,0.293 -1.009,1.219 -1.195,1.771c-0.069,0.226 -0.035,0.271 0.232,0.271c0.174,0 0.557,-0.068 0.847,-0.136l-0.023,0.013Zm4.617,3.303c0,-0.018 0.244,-0.978 0.545,-2.127c0.302,-1.152 0.558,-2.336 0.558,-2.634l0,-0.541l-0.546,0.08c-0.487,0.067 -0.545,0.049 -0.545,-0.169c0,-0.271 0.441,-0.478 1.554,-0.73c0.766,-0.169 1.056,-0.052 1.056,0.428l0,0.291l0.487,-0.298c0.859,-0.517 1.381,-0.619 1.996,-0.36c0.302,0.124 0.522,0.281 0.499,0.36c-0.371,1.182 -0.58,1.554 -0.882,1.554c-0.267,0 -0.313,-0.056 -0.313,-0.416c0,-0.902 -0.859,-0.902 -1.497,-0.012c-0.383,0.563 -0.788,1.823 -1.113,3.501c-0.093,0.506 -0.244,0.923 -0.314,0.945c-0.244,0.068 -1.45,0.18 -1.45,0.146l-0.035,-0.018Zm6.88,-0.117c-0.151,-0.158 -0.07,-0.607 0.72,-3.827l0.324,-1.328l-0.464,0c-0.255,0 -0.464,-0.034 -0.464,-0.068c0,-0.191 0.313,-0.551 0.476,-0.551c0.336,0 0.974,-0.586 1.253,-1.137c0.301,-0.608 0.418,-0.709 0.87,-0.709c0.301,0 0.325,0.045 0.244,0.405c-0.047,0.225 -0.128,0.619 -0.174,0.867l-0.082,0.461l0.638,0c0.65,0 0.743,0.102 0.557,0.552c-0.058,0.146 -0.266,0.203 -0.731,0.203c-0.766,0 -0.638,-0.248 -1.241,2.465c-0.441,1.992 -0.418,2.172 0.325,1.98c0.626,-0.157 0.672,-0.145 0.626,0.169c-0.035,0.215 -0.209,0.327 -0.731,0.485c-0.835,0.259 -1.891,0.292 -2.099,0.068l-0.047,-0.035Zm5.534,-0.158c-0.998,-0.967 -0.278,-3.747 1.322,-5.042c0.65,-0.529 1.671,-0.934 2.333,-0.934c0.429,0 1.356,0.394 1.496,0.63c0.221,0.372 0.151,1.261 -0.128,1.677c-0.568,0.856 -1.821,1.407 -3.179,1.407l-0.8,0l0,0.653c0,1.272 0.592,1.486 2.123,0.811c0.488,-0.214 0.917,-0.371 0.952,-0.338c0.034,0.034 0.081,0.169 0.115,0.304c0.036,0.203 -0.15,0.338 -0.962,0.709c-0.882,0.405 -1.137,0.461 -1.961,0.461c-0.847,0 -0.986,-0.033 -1.276,-0.314l-0.035,-0.024Zm2.413,-3.027c0.731,-0.214 1.229,-0.597 1.45,-1.069c0.186,-0.395 0.186,-0.462 -0.058,-0.755c-0.371,-0.45 -0.742,-0.461 -1.311,-0.011c-0.44,0.349 -1.183,1.509 -1.183,1.846c0,0.18 0.522,0.169 1.102,-0.011Zm51.453,3.276c-0.185,-0.169 -0.07,-0.901 0.592,-3.422c0.893,-3.422 1.369,-5.449 1.369,-5.775c0,-0.236 -0.058,-0.259 -0.476,-0.192c-0.429,0.068 -0.475,0.046 -0.475,-0.224c0,-0.305 0.348,-0.451 1.705,-0.687c0.708,-0.113 0.905,-0.034 0.905,0.371c0,0.191 -0.452,2.139 -1.021,4.345c-0.569,2.206 -1.033,4.199 -1.033,4.424l0,0.417l0.626,-0.068c0.592,-0.067 0.628,-0.056 0.581,0.202c-0.035,0.215 -0.209,0.327 -0.789,0.485c-0.766,0.224 -1.798,0.292 -1.961,0.146l-0.023,-0.022Zm5.163,-0.068c-0.163,-0.248 -0.07,-0.777 0.51,-2.848c0.314,-1.069 0.534,-2.049 0.511,-2.161c-0.059,-0.214 -0.093,-0.225 -0.685,-0.101c-0.313,0.067 -0.382,0.045 -0.382,-0.169c0,-0.293 0.591,-0.551 1.658,-0.743c0.766,-0.124 1.091,-0.057 1.091,0.225c0,0.101 -0.279,1.238 -0.615,2.521c-0.336,1.284 -0.58,2.398 -0.522,2.466c0.058,0.078 0.325,0.1 0.696,0.056c0.58,-0.068 0.615,-0.056 0.568,0.202c-0.034,0.215 -0.208,0.327 -0.8,0.484c-0.882,0.26 -1.856,0.293 -1.996,0.08l-0.034,-0.012Zm5.058,-0.056c-0.046,-0.113 -0.012,-0.518 0.081,-0.89c0.314,-1.238 0.975,-4.097 0.975,-4.153c0,-0.034 -0.186,-0.056 -0.417,-0.056c-0.592,0 -0.477,-0.349 0.219,-0.675c0.418,-0.192 0.662,-0.44 0.998,-1.025c0.394,-0.664 0.511,-0.766 0.848,-0.766l0.382,0l-0.186,0.777c-0.104,0.428 -0.185,0.81 -0.185,0.867c0,0.045 0.301,0.09 0.684,0.09c0.719,0 0.743,0.011 0.604,0.461c-0.07,0.248 -0.174,0.282 -0.789,0.282l-0.708,0l-0.464,2.082c-0.255,1.148 -0.429,2.172 -0.383,2.285c0.069,0.158 0.174,0.18 0.534,0.079c0.626,-0.157 0.661,-0.146 0.661,0.18c0,0.248 -0.116,0.326 -0.801,0.495c-1.055,0.271 -1.914,0.271 -2.03,0l-0.023,-0.033Zm5.65,-0.068c-0.337,-0.259 -0.406,-0.405 -0.452,-1.103c-0.104,-1.554 0.684,-3.309 1.856,-4.12c1.299,-0.889 2.714,-1.001 3.503,-0.292c0.372,0.337 0.406,0.427 0.337,0.99c-0.128,1.227 -1.427,2.116 -3.214,2.195c-1.113,0.057 -1.23,0.18 -1.009,1.047c0.244,0.946 0.673,1.046 2.042,0.461c0.904,-0.382 1.114,-0.382 1.114,0c0,0.394 -1.636,1.036 -2.82,1.092c-0.87,0.046 -1.009,0.022 -1.357,-0.258l0,-0.012Zm2.9,-3.309c0.859,-0.394 1.23,-1.261 0.743,-1.745c-0.615,-0.608 -1.741,0.192 -2.309,1.632l-0.197,0.529l0.615,-0.078c0.398,-0.063 0.788,-0.172 1.16,-0.327l-0.012,-0.011Zm32.751,3.545c0,-0.022 0.244,-0.979 0.546,-2.127c0.301,-1.148 0.557,-2.33 0.557,-2.634l0,-0.541l-0.545,0.08c-0.488,0.067 -0.546,0.056 -0.546,-0.169c0,-0.293 0.243,-0.417 1.357,-0.676c0.964,-0.224 1.254,-0.135 1.254,0.383l0,0.293l0.487,-0.293c0.859,-0.518 1.381,-0.619 1.995,-0.371c0.302,0.124 0.534,0.258 0.534,0.293c0,0.044 -0.127,0.427 -0.301,0.844c-0.256,0.641 -0.36,0.776 -0.615,0.776c-0.256,0 -0.314,-0.067 -0.314,-0.416c0,-0.844 -0.8,-0.912 -1.404,-0.113c-0.452,0.608 -0.684,1.272 -1.067,3.005c-0.162,0.788 -0.336,1.464 -0.383,1.498c-0.081,0.079 -1.519,0.259 -1.519,0.191l-0.036,-0.023Zm15.802,-0.146c-0.104,-0.259 0.023,-1.024 0.545,-3.208l0.453,-1.857l-0.383,-0.034c-0.452,-0.045 -0.534,-0.45 -0.104,-0.574c0.487,-0.135 1.044,-0.641 1.31,-1.194c0.302,-0.607 0.418,-0.709 0.87,-0.709c0.302,0 0.325,0.046 0.244,0.406c-0.046,0.225 -0.127,0.619 -0.174,0.867l-0.081,0.461l0.638,0c0.649,0 0.742,0.102 0.557,0.552c-0.058,0.146 -0.267,0.203 -0.731,0.203c-0.754,0 -0.638,-0.249 -1.241,2.464c-0.441,1.993 -0.418,2.173 0.325,1.982c0.626,-0.158 0.673,-0.147 0.626,0.169c-0.035,0.213 -0.209,0.325 -0.731,0.483c-0.905,0.282 -1.96,0.293 -2.077,0.035l-0.046,-0.046Zm5.534,-0.123c-1.033,-0.935 -0.313,-3.738 1.3,-5.044c0.649,-0.529 1.67,-0.934 2.331,-0.934c0.43,0 1.358,0.394 1.496,0.631c0.221,0.371 0.151,1.26 -0.127,1.688c-0.58,0.866 -1.821,1.407 -3.19,1.407l-0.813,0l0.07,0.766c0.104,1.204 0.592,1.373 2.088,0.697c0.488,-0.213 0.917,-0.371 0.952,-0.337c0.035,0.033 0.081,0.169 0.116,0.304c0.046,0.202 -0.151,0.338 -0.963,0.709c-0.871,0.405 -1.137,0.462 -1.926,0.462c-0.8,0 -0.963,-0.035 -1.276,-0.316l-0.058,-0.033Zm2.877,-3.22c0.963,-0.428 1.392,-1.418 0.789,-1.835c-0.394,-0.27 -0.685,-0.225 -1.207,0.191c-0.44,0.349 -1.183,1.509 -1.183,1.858c0,0.202 0.939,0.079 1.59,-0.214l0.011,0Zm4.165,3.445c0,-0.056 0.256,-1.058 0.557,-2.229c0.313,-1.171 0.546,-2.307 0.522,-2.522c-0.035,-0.36 -0.07,-0.382 -0.545,-0.36c-0.383,0.011 -0.511,-0.034 -0.569,-0.214c-0.046,-0.191 0.07,-0.281 0.639,-0.473c0.399,-0.131 0.806,-0.24 1.218,-0.326c0.533,-0.09 0.521,-0.101 0.858,0.63c0.011,0.012 0.371,-0.146 0.812,-0.348c0.952,-0.429 1.102,-0.451 1.682,-0.125l0.441,0.237l-0.29,0.799c-0.244,0.675 -0.348,0.811 -0.603,0.811c-0.255,0 -0.314,-0.067 -0.314,-0.405c0,-1.081 -1.136,-0.867 -1.751,0.326c-0.151,0.292 -0.465,1.328 -0.684,2.296c-0.221,0.968 -0.43,1.767 -0.453,1.79c-0.116,0.09 -1.485,0.169 -1.485,0.09l-0.035,0.023Zm6.857,0c0,-0.056 0.22,-0.878 0.499,-1.824c0.29,-1.036 0.498,-2.06 0.51,-2.578l0.023,-0.867l-0.487,0.046c-0.383,0.034 -0.511,-0.012 -0.557,-0.192c-0.058,-0.191 0.058,-0.27 0.627,-0.427c1.241,-0.349 1.531,-0.372 1.775,-0.147c0.131,0.132 0.21,0.309 0.22,0.495c0,0.158 0.023,0.293 0.058,0.293c0.023,0 0.429,-0.169 0.905,-0.371c1.102,-0.473 2.563,-0.721 3.005,-0.507c0.278,0.135 0.301,0.203 0.22,0.777c-0.058,0.337 -0.278,1.295 -0.499,2.116c-0.22,0.822 -0.418,1.688 -0.441,1.925c-0.034,0.427 -0.034,0.427 0.534,0.416c0.394,-0.011 0.603,0.045 0.65,0.169c0.104,0.259 -0.023,0.338 -0.882,0.563c-0.975,0.259 -1.879,0.259 -1.984,0c-0.046,-0.112 0.162,-1.182 0.464,-2.398c0.603,-2.431 0.638,-2.712 0.348,-2.803c-0.301,-0.101 -1.346,0.361 -1.972,0.867c-0.522,0.416 -0.58,0.552 -0.905,1.767c-0.186,0.733 -0.383,1.588 -0.441,1.914c-0.057,0.326 -0.174,0.619 -0.255,0.642c-0.418,0.112 -1.462,0.168 -1.462,0.079l0.047,0.045Zm9.397,-0.091c-0.047,-0.112 0.197,-1.249 0.545,-2.543c0.348,-1.284 0.603,-2.409 0.557,-2.511c-0.046,-0.124 -0.174,-0.135 -0.522,-0.044c-0.161,0.047 -0.323,0.088 -0.487,0.123c-0.012,0 -0.035,-0.123 -0.035,-0.281c0,-0.237 0.128,-0.315 0.72,-0.473c1.624,-0.439 2.122,-0.36 1.96,0.293c-0.035,0.169 -0.325,1.238 -0.627,2.386c-0.301,1.148 -0.522,2.172 -0.475,2.274c0.057,0.135 0.231,0.169 0.708,0.101c0.58,-0.068 0.614,-0.056 0.58,0.203c-0.093,0.529 -2.715,0.99 -2.912,0.518l-0.012,-0.046Zm5.174,0c-0.092,-0.214 0.023,-0.799 0.557,-2.949c0.591,-2.375 0.591,-2.161 0.093,-2.161c-0.604,0 -0.499,-0.337 0.197,-0.664c0.406,-0.191 0.649,-0.439 0.974,-0.991c0.36,-0.596 0.511,-0.742 0.813,-0.776c0.418,-0.046 0.418,-0.011 0.127,1.317l-0.081,0.405l0.72,0c0.603,0 0.707,0.034 0.637,0.192c-0.047,0.118 -0.074,0.244 -0.081,0.371c0,0.135 -0.185,0.18 -0.73,0.18l-0.732,0l-0.452,2.082c-0.244,1.149 -0.406,2.173 -0.359,2.285c0.069,0.169 0.174,0.18 0.545,0.091c0.626,-0.158 0.661,-0.147 0.661,0.18c0,0.258 -0.116,0.326 -0.801,0.495c-1.044,0.27 -1.914,0.27 -2.029,0l-0.059,-0.057Zm5.639,-0.089c-0.384,-0.305 -0.395,-0.338 -0.395,-1.531c0,-1.16 0.023,-1.261 0.522,-2.162c0.615,-1.103 1.299,-1.699 2.425,-2.071c1.949,-0.652 3.342,0.462 2.483,1.981c-0.488,0.867 -1.775,1.486 -3.098,1.486c-0.789,0 -0.847,0.023 -0.928,0.326c-0.116,0.417 0.035,1.036 0.301,1.317c0.314,0.327 0.847,0.271 1.81,-0.18c0.72,-0.326 0.87,-0.36 0.975,-0.213c0.243,0.349 0.127,0.484 -0.789,0.878c-0.708,0.315 -1.16,0.416 -1.891,0.449c-0.882,0.046 -1.009,0.024 -1.369,-0.258l-0.046,-0.022Zm2.993,-3.333c0.928,-0.461 1.241,-1.384 0.592,-1.767c-0.244,-0.146 -0.429,-0.169 -0.72,-0.078c-0.475,0.135 -1.171,0.945 -1.45,1.7l-0.22,0.584l0.637,-0.078c0.348,-0.046 0.877,-0.203 1.178,-0.361l-0.017,0Zm-207.194,3.252c0.023,-0.12 0.165,-0.236 0.313,-0.261c0.406,-0.069 0.754,-0.395 1.033,-0.953c0.36,-0.743 1.497,-5.898 1.531,-6.968c0.024,-0.911 0.024,-0.922 -0.418,-1.17c-0.846,-0.485 -0.614,-0.563 1.753,-0.563c1.879,0 2.192,0.034 2.192,0.191c0,0.113 -0.174,0.225 -0.417,0.27c-0.871,0.158 -1.207,0.935 -2.031,4.762c-0.765,3.579 -0.765,3.512 -0.417,3.827c0.266,0.236 0.406,0.259 1.473,0.214c1.439,-0.068 1.961,-0.282 2.46,-1.035c0.394,-0.586 0.417,-0.598 0.696,-0.44c0.162,0.091 0.151,0.214 -0.035,0.709c-0.141,0.385 -0.319,0.755 -0.534,1.104l-0.313,0.494l-3.666,0.035c-3.434,0.022 -3.666,0.011 -3.62,-0.192l0,-0.024Zm69.289,0.037c0,-0.096 0.233,-0.276 0.522,-0.401c0.36,-0.158 0.604,-0.395 0.812,-0.784c0.395,-0.725 1.578,-5.99 1.601,-7.103c0.023,-0.839 0.012,-0.866 -0.417,-1.112c-0.916,-0.529 -0.708,-0.562 3.469,-0.562c3.828,0 3.909,0.007 3.828,0.244c-0.046,0.124 -0.162,0.619 -0.255,1.081c-0.139,0.709 -0.209,0.844 -0.464,0.878c-0.244,0.033 -0.301,-0.023 -0.301,-0.293c0,-0.822 -0.535,-1.058 -2.46,-1.058l-1.323,0l-0.371,1.575c-0.142,0.598 -0.289,1.195 -0.441,1.791c-0.058,0.191 0.059,0.213 1.148,0.213c1.369,0 1.776,-0.135 2.17,-0.709c0.36,-0.517 0.824,-0.551 0.719,-0.068l-0.313,1.475c-0.186,0.901 -0.29,1.137 -0.464,1.137c-0.139,0 -0.255,-0.135 -0.313,-0.372c-0.046,-0.202 -0.22,-0.438 -0.394,-0.518c-0.325,-0.157 -2.483,-0.236 -2.634,-0.089c-0.093,0.078 -0.499,1.857 -0.673,2.971c-0.081,0.529 -0.058,0.597 0.255,0.789c0.278,0.169 0.592,0.191 1.555,0.157c1.427,-0.068 1.937,-0.27 2.525,-1.024c0.255,-0.327 0.498,-0.518 0.606,-0.473c0.267,0.09 0.237,0.315 -0.167,1.182c-0.603,1.294 -0.267,1.204 -4.466,1.204c-3.075,0 -3.678,-0.033 -3.678,-0.18l-0.076,0.049Zm69.598,0.003c0,-0.098 0.209,-0.241 0.453,-0.315c0.87,-0.267 1.159,-0.972 2.018,-4.973c0.743,-3.445 0.731,-3.996 -0.139,-4.247c-0.151,-0.044 -0.255,-0.145 -0.221,-0.224c0.047,-0.101 1.114,-0.152 3.864,-0.176c3.736,-0.034 3.806,-0.034 3.713,0.203c-0.047,0.135 -0.163,0.619 -0.255,1.08c-0.14,0.71 -0.21,0.845 -0.465,0.878c-0.255,0.034 -0.301,-0.022 -0.301,-0.349c0,-0.788 -0.662,-1.035 -2.53,-0.979l-1.078,0.033l-0.384,1.6c-0.208,0.877 -0.382,1.676 -0.382,1.755c0,0.225 2.088,0.203 2.587,-0.033c0.208,-0.102 0.464,-0.349 0.556,-0.564c0.106,-0.236 0.28,-0.382 0.43,-0.382c0.325,0 0.325,-0.09 -0.035,1.576c-0.244,1.17 -0.336,1.395 -0.545,1.395c-0.151,0 -0.243,-0.089 -0.243,-0.225c0,-0.573 -1.277,-1.013 -2.46,-0.833l-0.522,0.079l-0.278,1.385c-0.488,2.431 -0.465,2.656 0.278,2.927c0.824,0.303 0.348,0.416 -1.845,0.449c-1.799,0.035 -2.147,0.012 -2.147,-0.146l-0.069,0.086Zm-80.364,-2.659c-0.615,-0.251 -1.148,-1.027 -1.148,-1.662c0,-0.982 0.962,-1.86 2.042,-1.856c1.288,0.004 2.076,0.711 2.076,1.85c0.012,1.452 -1.462,2.285 -2.959,1.677l-0.011,-0.009Zm69.737,0.059c-0.232,-0.094 -0.604,-0.377 -0.812,-0.631c-0.314,-0.374 -0.383,-0.579 -0.371,-1.102c0.023,-1.135 0.8,-1.836 2.054,-1.836c0.626,0 0.834,0.062 1.252,0.372c0.951,0.686 1.102,1.835 0.348,2.645c-0.626,0.68 -1.577,0.893 -2.447,0.552l-0.024,0Zm-81.911,-4.396c-0.267,-0.268 -0.291,-0.24 1.264,-1.839l0.524,-0.54l0.78,0.157c0.429,0.088 0.781,0.196 0.781,0.241c0,0.083 -2.936,2.227 -3.048,2.227c-0.035,0 -0.174,-0.11 -0.313,-0.245l0.012,-0.001Zm69.692,0l-0.305,-0.22l1.032,-1.065c0.569,-0.586 1.08,-1.065 1.15,-1.065c0.336,0 1.507,0.303 1.484,0.383c-0.034,0.081 -2.587,1.933 -2.912,2.116c-0.081,0.04 -0.278,-0.026 -0.44,-0.147l-0.009,-0.002Zm91.068,0.002l-0.331,-0.225l1.072,-1.064c0.589,-0.585 1.12,-1.063 1.181,-1.063c0.278,0 1.507,0.297 1.496,0.36c0,0.067 -2.587,1.951 -2.924,2.133c-0.081,0.045 -0.302,-0.017 -0.479,-0.141l-0.015,0Zm-195.51,-0.635c-0.556,-0.501 -0.013,-1.47 0.824,-1.47c0.585,0 0.888,0.276 0.888,0.805c0,0.825 -1.073,1.243 -1.712,0.664l0,0.001Zm92.451,0.088c-0.337,-0.229 -0.317,-0.993 0.035,-1.311c0.563,-0.507 1.643,-0.169 1.643,0.518c0,0.743 -1.033,1.238 -1.671,0.81l-0.007,-0.017Zm90.984,-0.088c-0.569,-0.511 -0.011,-1.47 0.847,-1.47c0.859,0 1.23,0.867 0.603,1.428c-0.426,0.38 -1.067,0.4 -1.461,0.042l0.011,0Zm-120.03,-3.534c-0.209,-0.209 -0.162,-0.285 0.828,-1.257l1.057,-1.036l0.783,0.169c0.429,0.09 0.777,0.192 0.777,0.236c-0.012,0.125 -2.761,2.027 -3.005,2.083c-0.128,0.033 -0.325,-0.045 -0.44,-0.169l0,-0.026Z" style="fill-rule:nonzero;"/><path d="M129.03,72.282l0.32,-0.744c0.542,-1.348 1.102,-2.376 1.914,-3.505c0.858,-1.195 2.75,-2.956 3.535,-3.292c0.967,-0.414 2.167,-0.56 3.655,-0.444c1.276,0.102 5.193,0.679 6.775,1.002c1.204,0.243 2.968,0.266 3.797,0.048c1.598,-0.418 2.544,-1.23 2.994,-2.563c0.345,-1.025 0.342,-1.96 -0.009,-2.578c-0.471,-0.833 -0.391,-1.058 0.754,-2.038c0.564,-0.495 1.027,-0.946 1.029,-1.002c0,-0.337 -0.79,-1.655 -0.987,-1.666c-0.127,0 -0.371,-0.112 -0.545,-0.236l-0.325,-0.236l0.673,-0.315c0.928,-0.429 1.613,-1.093 1.613,-1.565c0,-0.202 -0.198,-0.698 -0.441,-1.104c-0.465,-0.776 -0.58,-1.519 -0.325,-1.958c0.163,-0.293 0.464,-0.416 1.903,-0.788c1.206,-0.315 1.647,-0.641 1.821,-1.339c0.139,-0.597 0.069,-0.98 -0.325,-1.7c-0.324,-0.586 -2.436,-3.501 -3.039,-4.21c-0.825,-0.956 -1.833,-2.611 -2.124,-3.501c-0.289,-0.877 -0.301,-0.933 -0.081,-2.06c0.452,-2.397 0.185,-4.378 -1.102,-8.239c-0.963,-2.882 -1.218,-3.58 -1.508,-4.12c-0.546,-0.968 -0.476,-1.193 0.638,-2.014c0.533,-0.395 1.021,-0.811 1.091,-0.935c0.336,-0.563 -0.047,-1.654 -0.674,-1.958c-0.406,-0.192 -0.626,-0.057 -1.032,0.618c-0.314,0.518 -0.441,0.608 -0.766,0.608c-0.545,0 -0.637,-0.202 -0.289,-0.619c0.393,-0.495 0.371,-0.574 -0.267,-0.652c-0.476,-0.057 -0.72,-0.226 -1.753,-1.171c-1.369,-1.261 -2.297,-1.846 -4.129,-2.611c-0.847,-0.349 -1.137,-0.518 -0.836,-0.473c0.267,0.033 1.195,0.1 2.076,0.146c2.542,0.112 3.156,-0.191 3.748,-1.846c0.395,-1.126 0.592,-1.644 -0.337,-2.431l-3.316,-2.791l75.999,0l0,64.282l-90.125,0Z" style="fill:#e2011c;fill-rule:nonzero;"/><path d="M64.222,72.282c-0.55,-0.052 -1.029,-0.074 -1.062,-0.104c-0.059,-0.052 0.564,-0.414 3.417,-1.982c0.917,-0.504 1.293,-0.773 1.165,-0.836c-0.104,-0.049 -0.902,-0.128 -1.775,-0.175c-1.297,-0.068 -1.673,-0.05 -2.053,0.109c-0.259,0.107 -1.286,0.387 -2.283,0.623c-2.483,0.586 -3.307,0.989 -4.107,1.982l-0.302,0.382l-48.76,0l0,-64.281l96.763,0l-1.874,1.103c-1.033,0.464 -2.233,1.107 -2.666,1.43c-1.472,1.091 -3.454,3.581 -3.949,4.958c-0.185,0.507 -0.348,0.694 -0.904,1.039c-0.859,0.525 -1.88,1.524 -2.727,2.663c-1.148,1.547 -3.341,5.031 -3.77,5.997c-0.673,1.5 -0.615,2.643 0.371,7.123c0.429,1.973 0.894,3.978 1.032,4.455c0.14,0.476 0.291,1.283 0.337,1.792c0.081,0.913 0.151,1.109 0.743,2.228c0.162,0.305 0.289,0.652 0.289,0.772c0,0.118 0.117,0.285 0.268,0.371c0.16,0.101 0.26,0.276 0.267,0.465c0,0.214 0.312,0.621 0.997,1.3c1.567,1.553 2.703,3.009 2.703,3.47c0,0.379 -0.614,0.476 -1.612,0.255c-1.161,-0.258 -2.112,-0.815 -3.574,-2.097c-0.626,-0.547 -1.125,-0.912 -1.125,-0.815c0,0.096 0.418,0.604 0.94,1.126c1.032,1.041 1.195,1.325 0.974,1.702c-0.197,0.332 -0.672,0.428 -1.322,0.267c-0.755,-0.186 -1.184,0.073 -1.067,0.627c0.069,0.349 0.057,0.383 -0.163,0.316c-0.418,-0.147 -1.346,-0.316 -2.17,-0.395c-0.766,-0.067 -0.823,-0.101 -1.276,-0.675c-0.348,-0.439 -0.626,-0.641 -0.986,-0.732c-1.357,-0.338 -4.745,-0.878 -7.007,-1.103c-3.991,-0.394 -4.954,-0.428 -6.868,-0.213c-1.473,0.156 -1.868,0.258 -2.669,0.618c-1.427,0.653 -3.898,2.702 -3.898,3.231c0,0.247 0.546,0.169 1.16,-0.18c1.88,-1.047 8.342,-2.533 11.509,-2.646c1.566,-0.056 1.485,0.012 -0.406,0.327c-0.522,0.09 -1.752,0.372 -2.738,0.642c-0.986,0.27 -2.692,0.675 -3.782,0.911c-1.09,0.226 -2.332,0.529 -2.738,0.664l-0.754,0.248l1.16,0.012c5.94,0.056 12.692,1.755 15.454,3.883c1.182,0.912 1.612,1.024 3.352,0.855c2.39,-0.225 5.476,-1.249 6.833,-2.274c0.592,-0.439 1.068,-0.619 1.068,-0.382c0,0.405 -0.777,2.578 -1.114,3.107c-0.371,0.607 -0.395,0.686 -0.197,0.822c0.116,0.078 0.186,0.18 0.139,0.213c-0.046,0.045 0.047,0.113 0.209,0.158c0.452,0.135 0.337,0.258 -0.383,0.416c-0.696,0.169 -1.253,0.451 -1.253,0.642c0,0.067 0.093,0.124 0.209,0.124c0.348,0 0.093,0.225 -0.371,0.314c-0.314,0.068 -0.372,0.113 -0.232,0.193c0.139,0.078 0.139,0.112 0.011,0.112c-0.093,0 -0.174,0.124 -0.174,0.281c0,0.192 -0.139,0.327 -0.418,0.439c-0.684,0.281 -0.499,0.428 0.441,0.349c0.476,-0.045 0.766,-0.045 0.65,0c-0.116,0.034 -0.881,0.349 -1.705,0.698c-0.836,0.337 -1.914,0.754 -2.402,0.912c-0.557,0.18 -0.905,0.36 -0.94,0.495c-0.046,0.214 0.209,0.203 0.859,-0.022c0.116,-0.046 0.221,-0.023 0.221,0.033c0,0.056 -1.428,0.799 -3.168,1.655c-1.752,0.855 -3.376,1.733 -3.631,1.948c-0.256,0.224 -0.568,0.405 -0.719,0.405c-0.14,0 -0.325,0.146 -0.418,0.315c-0.267,0.529 -0.221,0.596 0.418,0.495c0.939,-0.146 1.38,-0.135 1.439,0.034c0.034,0.089 -0.059,0.157 -0.21,0.157c-0.16,0.005 -0.313,0.069 -0.429,0.181c-0.093,0.1 -0.325,0.202 -0.522,0.213c-0.244,0.034 -0.464,0.18 -0.65,0.44c-0.15,0.213 -0.394,0.427 -0.545,0.461c-0.151,0.033 0.061,0.045 0.476,0.011c6.16,-0.416 7.309,-0.619 9.795,-1.756c2.118,-0.968 4.316,-2.42 5.882,-3.861c0.452,-0.417 0.87,-0.754 0.928,-0.754c0.212,0 0.096,0.686 -0.217,1.306c-0.545,1.058 -1.682,2.026 -4.026,3.433c-1.183,0.709 -2.459,1.384 -2.837,1.486c-1.177,0.337 -3.075,0.698 -5.07,0.956c-6.489,0.845 -8.973,1.487 -11.433,2.961c-0.415,0.237 -0.847,0.428 -0.962,0.405c-0.117,-0.011 -0.429,0.135 -0.685,0.338c-0.731,0.574 -0.197,0.472 1.334,-0.237c1.578,-0.731 2.309,-0.844 1.068,-0.169c-1.52,0.833 -2.668,1.362 -3.806,1.362l-6.05,0l0.073,-0.127Zm-8.061,-7.17c0.246,-0.094 1.061,-0.506 1.811,-0.916c0.75,-0.41 1.64,-0.86 1.979,-0.999l2.124,-0.867c1.736,-0.706 4.286,-1.373 4.432,-1.158c0.052,0.074 0.432,0.157 0.847,0.183c0.576,0.035 0.677,0.07 0.44,0.146c-0.169,0.053 -0.308,0.146 -0.308,0.207c0,0.223 1.282,0.158 1.821,-0.095c0.213,-0.102 0.691,-0.214 1.063,-0.26c0.463,-0.056 0.677,-0.134 0.677,-0.258c0,-0.147 0.119,-0.169 0.536,-0.102c0.577,0.091 1.814,-0.123 5.151,-0.878c2.257,-0.517 3.968,-1.035 5.471,-1.654l1.086,-0.45l-1.086,-0.631c-2.651,-1.531 -5.314,-2.476 -11.158,-3.951c-1.017,-0.259 -1.911,-0.529 -1.986,-0.596c-0.09,-0.08 -0.046,-0.091 0.137,-0.034c0.584,0.191 1.028,0.225 1.028,0.079c0,-0.181 -0.441,-0.327 -1.309,-0.439c-0.792,-0.102 -1.304,-0.315 -0.753,-0.315c0.852,0 -0.613,-0.496 -2.254,-0.744c-1.214,-0.191 -1.284,-0.236 -0.777,-0.461c0.441,-0.191 0.916,-0.923 0.792,-1.215c-0.104,-0.26 -0.231,-0.226 -0.893,0.168c-1.265,0.766 -2.424,2.026 -3.074,3.332c-0.371,0.743 -0.244,0.811 1.67,0.889c1.578,0.057 1.601,0.068 1.195,0.259c-0.323,0.135 -0.663,0.229 -1.009,0.281c-1.114,0.147 -1.729,0.631 -1.172,0.913c0.163,0.078 0.104,0.145 -0.302,0.326c-0.452,0.192 -0.475,0.236 -0.267,0.337c0.14,0.068 0.535,0.102 0.883,0.079c0.486,-0.033 0.707,0.012 0.939,0.192l0.302,0.236l-0.604,0.337c-0.336,0.192 -0.707,0.529 -0.835,0.744c-0.127,0.214 -0.58,0.731 -1.021,1.147c-0.43,0.417 -0.789,0.845 -0.789,0.958c0,0.101 -0.626,0.653 -1.403,1.204c-2.077,1.497 -2.982,2.33 -2.982,2.724c0,0.214 -0.116,0.394 -0.325,0.518c-0.649,0.383 -0.986,0.821 -0.626,0.821c0.081,0 0.348,-0.078 0.591,-0.168l-0.042,0.111Zm16.026,-1.445c0.513,-0.062 1.108,-0.206 1.32,-0.32l0.388,-0.207l-0.662,-0.297l-0.661,-0.297l-0.659,0.241c-0.364,0.133 -0.866,0.311 -1.117,0.397c-1.011,0.346 -1.142,0.81 -0.194,0.682c0.528,-0.068 1.056,-0.131 1.585,-0.192l0,-0.007Zm-23.195,-5.626c3.05,-2.882 5.206,-4.592 7.941,-6.303c0.928,-0.582 1.585,-0.918 1.618,-0.83c0.087,0.236 0.486,0.169 1.134,-0.202c0.745,-0.429 1.117,-0.867 2.046,-2.376c0.964,-1.575 1.33,-1.97 2.721,-2.938c0.661,-0.45 1.613,-1.137 2.135,-1.508c0.754,-0.54 0.928,-0.631 0.87,-0.416c-0.046,0.157 -0.012,0.269 0.092,0.269c0.314,0 1.787,-0.573 1.834,-0.709c0.081,-0.224 -1.405,-0.45 -2.507,-0.382c-0.846,0.045 -1.136,0.135 -2.192,0.641c-2.46,1.204 -4.246,2.499 -7.645,5.572c-2.448,2.207 -4.375,3.692 -5.349,4.109c-0.314,0.134 -0.556,0.427 -0.94,1.125c-0.742,1.373 -2.088,3.344 -3.352,4.942c-1.195,1.509 -1.451,2.026 -0.522,1.058c0.71,-0.707 1.429,-1.405 2.157,-2.094l-0.041,0.042Zm30.549,13.535c3.666,-0.69 4.072,-0.741 6.644,-0.842c2.889,-0.116 3.258,-0.183 4.995,-0.92c0.558,-0.236 0.776,-0.279 0.853,-0.169c0.135,0.195 1.079,-0.27 2.921,-1.436c0.754,-0.475 1.818,-1.085 2.367,-1.353c0.827,-0.406 1.078,-0.473 1.477,-0.406c0.425,0.072 0.552,0.023 1.093,-0.405c1.504,-1.196 2.787,-1.749 4.069,-1.752c0.383,0 0.514,0.049 0.514,0.196c0,0.127 0.075,0.174 0.205,0.129c0.383,-0.135 0.209,0.011 -0.773,0.675c-1.136,0.755 -1.032,0.991 0.128,0.259c1.114,-0.697 1.126,-0.697 1.126,-0.416c0,0.157 -0.43,0.563 -1.207,1.148c-1.775,1.328 -3.028,2.431 -4.931,4.333l-1.705,1.655l-21.682,0l3.903,-0.709l0.003,0.013Zm0.035,-25.183c0.132,-0.031 0.348,-0.031 0.479,0c0.132,0.032 0.023,0.057 -0.239,0.057c-0.265,0 -0.371,-0.025 -0.24,-0.057Z" style="fill:#003189;fill-rule:nonzero;"/><path d="M143.481,41.69c-0.599,-0.083 -0.29,-0.284 0.435,-0.284c0.726,0 1.109,-0.251 1.109,-0.729c0,-0.225 -0.047,-0.261 -0.278,-0.194c-0.198,0.056 -0.337,0.008 -0.476,-0.162c-0.116,-0.157 -0.418,-0.27 -0.859,-0.323c-0.777,-0.094 -2.042,-0.774 -1.821,-0.979c0.081,-0.07 0.487,-0.154 0.893,-0.184c0.72,-0.054 0.766,-0.078 0.905,-0.474c0.116,-0.297 0.267,-0.44 0.522,-0.496c0.209,-0.043 0.522,-0.206 0.708,-0.363c0.197,-0.158 0.812,-0.563 1.369,-0.889c0.951,-0.564 1.543,-1.16 1.334,-1.351c-0.221,-0.203 -2.274,-0.417 -3.248,-0.349c-1.126,0.078 -3.063,0.45 -3.864,0.731c-0.824,0.282 -0.591,0.034 0.557,-0.574c1.543,-0.833 4.513,-1.598 6.149,-1.598c0.638,0 2.772,0.45 3.028,0.641c0.499,0.372 -0.046,1.678 -0.963,2.331l-0.383,0.269l0.627,0.609l-0.325,0.236c-0.174,0.124 -0.418,0.237 -0.534,0.237c-0.116,0 -0.418,0.168 -0.661,0.382c-0.371,0.327 -0.418,0.427 -0.313,0.687c0.08,0.191 0.08,0.382 -0.024,0.551c-0.093,0.158 -0.116,0.507 -0.057,0.912c0.115,0.822 -0.047,1.114 -0.72,1.283c-0.487,0.124 -2.297,0.147 -3.086,0.034l-0.024,0.046Z" style="fill:#7f7f7f;fill-rule:nonzero;"/></g></svg>