<?xml version="1.0" encoding="UTF-8" standalone="no"?><!DOCTYPE svg PUBLIC "-//W3C//DTD SVG 1.1//EN" "http://www.w3.org/Graphics/SVG/1.1/DTD/svg11.dtd"><svg width="100%" height="100%" viewBox="0 0 128 128" version="1.1" xmlns="http://www.w3.org/2000/svg" xmlns:xlink="http://www.w3.org/1999/xlink" xml:space="preserve" xmlns:serif="http://www.serif.com/" style="fill-rule:evenodd;clip-rule:evenodd;stroke-linejoin:round;stroke-miterlimit:1.41421;"><g><circle cx="64" cy="64" r="64" style="fill:#fff;"/><path d="M128,113c0,-2.76 -2.24,-5 -5,-5l-118,0c-2.76,0 -5,2.24 -5,5l0,10c0,2.76 2.24,5 5,5l118,0c2.76,0 5,-2.24 5,-5l0,-10Z" style="fill:#fff;"/></g><g><path d="M16.256,89.626l-1.219,0.65l-0.65,-1.219l1.219,-0.65l0.65,1.219Z" style="fill:#556f7b;fill-rule:nonzero;"/><path d="M8.769,87.946l-1.327,-0.234l-0.217,-0.47l1.364,0.298l0.18,0.406Zm0.958,0.894l-1.328,-3.043l0.334,-0.145l1.156,2.665l1.978,-0.858l-0.984,-2.267l0.334,-0.145l0.984,2.267l2.023,-0.876l-1.156,-2.655l0.334,-0.145l1.328,3.044l-5.003,2.158Zm2.835,-7.757c0.17,0.482 0.138,1.014 -0.09,1.472c-0.316,0.632 -0.777,0.794 -1.942,1.192c-1.174,0.397 -1.634,0.542 -2.266,0.235c-0.458,-0.225 -0.807,-0.626 -0.967,-1.111c-0.316,-0.93 0.045,-1.779 0.912,-2.276l0.136,0.397c-0.668,0.398 -0.939,1.057 -0.705,1.752c0.127,0.371 0.38,0.669 0.732,0.849c0.497,0.244 0.912,0.136 2.014,-0.235c1.102,-0.379 1.499,-0.541 1.743,-1.038c0.172,-0.352 0.19,-0.75 0.063,-1.12c-0.235,-0.695 -0.858,-1.075 -1.625,-0.975l-0.127,-0.389c1.003,-0.144 1.815,0.325 2.122,1.247Zm-2.167,-5.672c0.433,0.262 0.741,0.686 0.867,1.192c0.125,0.497 0.047,1.024 -0.217,1.463c-0.37,0.605 -0.84,0.732 -2.032,1.021c-1.201,0.289 -1.671,0.397 -2.276,0.036c-0.435,-0.267 -0.747,-0.696 -0.867,-1.192c-0.125,-0.497 -0.047,-1.024 0.217,-1.463c0.37,-0.605 0.831,-0.723 2.032,-1.021c1.192,-0.298 1.671,-0.406 2.276,-0.036Zm-4.01,1.319c-0.198,0.334 -0.256,0.733 -0.162,1.11c0.09,0.38 0.325,0.705 0.659,0.904c0.469,0.289 0.894,0.216 2.032,-0.064c1.129,-0.28 1.544,-0.406 1.833,-0.885c0.199,-0.334 0.253,-0.722 0.163,-1.111c-0.088,-0.378 -0.327,-0.704 -0.66,-0.903c-0.469,-0.289 -0.894,-0.216 -2.032,0.063c-1.137,0.28 -1.544,0.407 -1.833,0.886Zm-1.228,-2.267l-0.063,-0.407l5.03,-0.803l-0.461,-2.863l0.362,-0.055l0.524,3.27l-5.392,0.858Zm4.055,-7.731c0.388,0.334 0.623,0.795 0.668,1.319c0.047,0.511 -0.116,1.02 -0.451,1.408c-0.461,0.542 -0.949,0.587 -2.168,0.687c-1.228,0.099 -1.716,0.126 -2.249,-0.325c-0.388,-0.334 -0.629,-0.808 -0.668,-1.319c-0.048,-0.511 0.116,-1.021 0.452,-1.409c0.46,-0.542 0.939,-0.587 2.167,-0.686c1.219,-0.1 1.716,-0.136 2.249,0.325Zm-4.164,0.659c-0.252,0.298 -0.37,0.678 -0.334,1.066c0.027,0.388 0.208,0.75 0.506,1.002c0.425,0.362 0.849,0.353 2.014,0.262c1.165,-0.09 1.59,-0.153 1.951,-0.578c0.253,-0.298 0.37,-0.677 0.334,-1.065c-0.026,-0.389 -0.209,-0.751 -0.506,-1.003c-0.424,-0.361 -0.849,-0.352 -2.014,-0.262c-1.165,0.091 -1.589,0.163 -1.951,0.578Zm4.046,-5.5c0.398,0.361 0.615,0.894 0.615,1.445c-0.001,0.511 -0.21,1.001 -0.578,1.355c-0.506,0.497 -0.994,0.497 -2.222,0.479c-1.237,-0.019 -1.716,-0.028 -2.213,-0.533c-0.357,-0.366 -0.553,-0.861 -0.542,-1.373c0.009,-0.948 0.66,-1.698 1.617,-1.842l-0.009,0.415c-0.759,0.154 -1.237,0.695 -1.246,1.436c-0.009,0.388 0.135,0.759 0.406,1.039c0.388,0.397 0.813,0.433 1.978,0.442c1.165,0.018 1.598,-0.009 1.996,-0.397c0.28,-0.271 0.433,-0.641 0.433,-1.03c0.013,-0.438 -0.177,-0.858 -0.514,-1.138c-0.299,-0.244 -0.615,-0.334 -1.075,-0.343l-0.488,-0.009l-0.018,1.463l-0.37,-0.009l0.027,-1.878l0.894,0.009c0.569,0.018 0.966,0.135 1.309,0.469Zm-4.777,-2.032l0.027,-0.415l5.446,0.361l-0.027,0.415l-5.446,-0.361Zm5.572,-4.398c0.226,0.37 0.316,0.813 0.262,1.246c-0.059,0.509 -0.323,0.972 -0.731,1.283c-0.56,0.433 -1.048,0.379 -2.267,0.225c-1.228,-0.153 -1.707,-0.225 -2.132,-0.785c-0.316,-0.404 -0.453,-0.92 -0.379,-1.427c0.063,-0.515 0.325,-0.976 0.732,-1.283c0.56,-0.433 1.038,-0.379 2.266,-0.225c1.111,0.144 1.626,0.216 2.023,0.65l0.723,-0.56l0.235,0.307l-0.732,0.569Zm-4.335,-0.379c-0.305,0.24 -0.503,0.59 -0.551,0.975c-0.045,0.388 0.045,0.768 0.289,1.084c0.334,0.433 0.759,0.524 1.915,0.668c1.156,0.145 1.589,0.172 2.023,-0.162c0.307,-0.235 0.497,-0.588 0.551,-0.976c0.045,-0.332 -0.025,-0.67 -0.199,-0.957l-0.858,0.668l-0.235,-0.307l0.849,-0.659c-0.307,-0.289 -0.776,-0.361 -1.752,-0.488c-1.165,-0.162 -1.598,-0.19 -2.032,0.154Zm5.419,-3.152c-0.235,1.074 -1.138,1.671 -2.177,1.436l-3.603,-0.795l0.09,-0.406l3.55,0.785c0.885,0.199 1.589,-0.235 1.779,-1.102c0.189,-0.858 -0.271,-1.553 -1.156,-1.743l-3.55,-0.785l0.091,-0.407l3.603,0.795c1.048,0.235 1.608,1.147 1.373,2.222Zm-4.489,-4.76l0.994,-3.161l0.352,0.109l-0.867,2.763l2.059,0.641l0.741,-2.357l0.352,0.109l-0.741,2.357l2.105,0.659l0.867,-2.763l0.352,0.108l-0.993,3.161l-5.221,-1.626Z" style="fill:#3dac48;fill-rule:nonzero;"/><path d="M13.448,43.675l-1.274,-0.524l0.524,-1.282l1.273,0.524l-0.523,1.282Z" style="fill:#556f7b;fill-rule:nonzero;"/><path d="M15.543,39.141c-0.228,0.46 -0.632,0.808 -1.12,0.967c-0.668,0.217 -1.111,0 -2.204,-0.551c-1.102,-0.56 -1.526,-0.786 -1.752,-1.454c-0.16,-0.486 -0.118,-1.017 0.118,-1.472c0.442,-0.876 1.3,-1.219 2.266,-0.939l-0.189,0.379c-0.75,-0.199 -1.409,0.072 -1.743,0.722c-0.182,0.342 -0.215,0.744 -0.091,1.111c0.172,0.524 0.542,0.75 1.581,1.274c1.039,0.523 1.436,0.695 1.96,0.523c0.37,-0.117 0.668,-0.388 0.849,-0.731c0.334,-0.659 0.162,-1.364 -0.443,-1.852l0.181,-0.361c0.795,0.614 1.029,1.526 0.587,2.384Zm2.538,-5.518c0.115,0.498 0.027,1.021 -0.244,1.454c-0.271,0.443 -0.705,0.75 -1.201,0.867c-0.687,0.163 -1.111,-0.09 -2.15,-0.74c-1.047,-0.65 -1.454,-0.912 -1.616,-1.599c-0.116,-0.497 -0.028,-1.021 0.243,-1.454c0.265,-0.437 0.695,-0.749 1.193,-0.867c0.686,-0.162 1.101,0.091 2.149,0.741c1.048,0.641 1.463,0.912 1.626,1.598Zm-3.748,-1.941c-0.38,0.09 -0.696,0.325 -0.904,0.659c-0.208,0.327 -0.277,0.724 -0.189,1.102c0.126,0.542 0.478,0.794 1.463,1.409c0.993,0.614 1.373,0.812 1.915,0.686c0.379,-0.09 0.695,-0.325 0.903,-0.659c0.209,-0.327 0.277,-0.724 0.189,-1.102c-0.126,-0.542 -0.478,-0.795 -1.463,-1.409c-0.993,-0.614 -1.373,-0.813 -1.914,-0.686Zm5.039,-3.369l-1.716,2.276l2.05,1.544l-0.253,0.334l-4.362,-3.287l0.253,-0.334l2.014,1.517l1.716,-2.276l-2.014,-1.517l0.253,-0.334l4.362,3.296l-0.253,0.334l-2.05,-1.553Zm-0.831,-3.531l2.213,-2.466l0.271,0.244l-1.942,2.159l1.608,1.445l1.652,-1.834l0.271,0.244l-1.652,1.833l1.634,1.472l1.942,-2.158l0.271,0.244l-2.213,2.465l-4.055,-3.648Zm0.416,-1.247l-0.344,-1.309l0.344,-0.379l0.298,1.363l-0.298,0.325Zm7.604,0.813c-0.587,0.551 -1.111,0.75 -1.815,0.732l0.009,-0.416c0.695,0.018 1.092,-0.153 1.571,-0.605c0.632,-0.596 0.732,-1.264 0.244,-1.788c-0.226,-0.235 -0.47,-0.361 -0.75,-0.352c-0.262,0.027 -0.406,0.063 -0.776,0.334l-0.533,0.37c-0.343,0.244 -0.668,0.371 -0.985,0.38c-0.37,0.027 -0.704,-0.118 -1.002,-0.434c-0.632,-0.668 -0.56,-1.526 0.199,-2.258c0.487,-0.469 0.93,-0.632 1.544,-0.659l-0.009,0.379c-0.443,0 -0.84,0.1 -1.31,0.551c-0.578,0.551 -0.623,1.183 -0.144,1.689c0.217,0.226 0.451,0.334 0.695,0.325c0.253,-0.018 0.56,-0.144 0.822,-0.316l0.488,-0.343c0.424,-0.307 0.659,-0.397 0.957,-0.406c0.389,-0.028 0.777,0.126 1.075,0.442c0.65,0.686 0.551,1.59 -0.28,2.375Zm-1.409,-6.15l0.316,-0.271l3.531,4.163l-0.316,0.271l-3.531,-4.163Zm7.072,0.732c-0.073,0.506 -0.347,0.962 -0.759,1.264c-0.406,0.311 -0.921,0.444 -1.427,0.37c-0.695,-0.099 -1.003,-0.488 -1.734,-1.472c-0.741,-0.984 -1.021,-1.382 -0.921,-2.077c0.072,-0.506 0.346,-0.962 0.758,-1.264c0.406,-0.312 0.921,-0.445 1.427,-0.371c0.696,0.1 0.994,0.479 1.734,1.472c0.732,0.985 1.021,1.382 0.922,2.078Zm-2.782,-3.17c-0.384,-0.055 -0.775,0.046 -1.084,0.28c-0.315,0.227 -0.524,0.573 -0.578,0.957c-0.081,0.551 0.154,0.912 0.858,1.842c0.696,0.93 0.985,1.256 1.526,1.337c0.389,0.054 0.768,-0.045 1.084,-0.28c0.314,-0.227 0.523,-0.573 0.578,-0.957c0.081,-0.551 -0.153,-0.913 -0.858,-1.843c-0.695,-0.93 -0.984,-1.255 -1.526,-1.336Zm2.357,-1.662l2.484,4.046l-0.353,0.217l-2.853,-4.661l0.352,-0.216l5.166,2.393l-2.475,-4.037l0.352,-0.217l2.854,4.66l-0.352,0.217l-5.175,-2.402Z" style="fill:#20b2e8;fill-rule:nonzero;"/><path d="M39.548,15.127l-0.605,-1.237l1.237,-0.605l0.605,1.237l-1.237,0.605Z" style="fill:#556f7b;fill-rule:nonzero;"/><path d="M43.901,13.177l-0.388,0.153l-1.906,-4.723l-1.508,0.605l-0.136,-0.343l3.414,-1.373l0.136,0.343l-1.518,0.605l1.906,4.733Zm3.378,-3.857l-1.436,0.452l0.749,2.402l-0.397,0.127l-1.626,-5.211l1.987,-0.615c0.849,-0.261 1.644,0.028 1.933,0.931c0.244,0.785 -0.072,1.427 -0.759,1.779l2.014,2.014l-0.46,0.144l-2.005,-2.023Zm-0.669,-2.492l-1.535,0.478l0.659,2.114l1.536,-0.479c0.677,-0.208 1.047,-0.686 0.821,-1.409c-0.225,-0.731 -0.803,-0.912 -1.481,-0.704Zm6.548,2.23l-2.484,0.551l-0.18,1.4l-0.434,0.099l0.786,-5.78l0.361,-0.081l3.143,4.904l-0.433,0.099l-0.759,-1.192Zm-2.438,0.154l2.23,-0.497l-1.806,-2.89l-0.424,3.387Zm4.118,-3.938l0.605,4.715l-0.416,0.054l-0.695,-5.419l0.415,-0.054l3.73,4.299l-0.605,-4.697l0.416,-0.054l0.695,5.419l-0.415,0.054l-3.73,-4.317Zm6.927,4.164c-0.804,0.027 -1.328,-0.172 -1.843,-0.651l0.28,-0.307c0.506,0.47 0.922,0.605 1.572,0.587c0.867,-0.036 1.391,-0.469 1.364,-1.183c-0.01,-0.334 -0.118,-0.587 -0.326,-0.758c-0.216,-0.154 -0.343,-0.217 -0.803,-0.262l-0.642,-0.072c-0.415,-0.046 -0.74,-0.163 -0.993,-0.362c-0.289,-0.226 -0.452,-0.56 -0.47,-0.984c-0.036,-0.921 0.587,-1.517 1.635,-1.563c0.677,-0.027 1.111,0.145 1.599,0.533l-0.262,0.28c-0.335,-0.298 -0.705,-0.478 -1.346,-0.451c-0.795,0.027 -1.246,0.478 -1.219,1.174c0.009,0.316 0.117,0.551 0.316,0.704c0.199,0.154 0.515,0.262 0.822,0.307l0.596,0.073c0.515,0.045 0.758,0.135 0.984,0.325c0.307,0.234 0.497,0.605 0.515,1.038c0.036,0.912 -0.632,1.527 -1.779,1.572Zm2.998,-5.555l0.416,0.009l-0.091,5.464l-0.415,-0.009l0.09,-5.464Zm3.215,5.609l-0.415,-0.027l0.352,-5.085l-1.626,-0.108l0.028,-0.37l3.666,0.252l-0.027,0.371l-1.635,-0.118l-0.343,5.085Zm3.134,-5.184l0.416,0.054l-0.669,5.419l-0.415,-0.054l0.668,-5.419Zm4.263,5.699c-0.425,0.289 -0.93,0.397 -1.445,0.298c-0.515,-0.1 -0.948,-0.38 -1.237,-0.804c-0.398,-0.578 -0.317,-1.066 -0.091,-2.276c0.226,-1.21 0.325,-1.689 0.903,-2.086c0.421,-0.29 0.943,-0.398 1.445,-0.298c0.515,0.099 0.949,0.379 1.238,0.804c0.397,0.578 0.316,1.056 0.09,2.275c-0.226,1.202 -0.325,1.68 -0.903,2.087Zm0.442,-4.2c-0.22,-0.318 -0.558,-0.536 -0.939,-0.605c-0.388,-0.072 -0.777,0 -1.093,0.226c-0.46,0.316 -0.569,0.731 -0.776,1.878c-0.217,1.147 -0.262,1.572 0.054,2.032c0.217,0.325 0.56,0.533 0.939,0.605c0.388,0.073 0.777,0 1.093,-0.225c0.46,-0.316 0.569,-0.732 0.777,-1.879c0.207,-1.147 0.252,-1.571 -0.055,-2.032Zm2.827,0.605l-1.3,4.57l-0.398,-0.117l1.499,-5.257l0.398,0.118l1.734,5.419l1.3,-4.552l0.398,0.117l-1.499,5.256l-0.398,-0.117l-1.734,-5.437Z" style="fill:#1173ba;fill-rule:nonzero;"/><path d="M83.404,12.924l0.514,-1.283l1.283,0.515l-0.515,1.283l-1.282,-0.515Z" style="fill:#556f7b;fill-rule:nonzero;"/><path d="M87.784,14.829l-0.37,-0.18l2.221,-4.588l-1.463,-0.705l0.163,-0.334l3.305,1.599l-0.162,0.334l-1.472,-0.714l-2.222,4.588Zm4.931,-3.612l2.863,1.671l-0.19,0.316l-2.511,-1.463l-1.083,1.86l2.131,1.246l-0.19,0.316l-2.131,-1.246l-1.111,1.906l2.511,1.463l-0.19,0.316l-2.863,-1.671l2.764,-4.714Zm3.992,5.988l-1.238,-0.858l-1.445,2.059l-0.343,-0.235l3.134,-4.48l1.707,1.193c0.732,0.514 0.984,1.318 0.443,2.095c-0.47,0.677 -1.175,0.822 -1.879,0.487l-0.37,2.827l-0.398,-0.28l0.389,-2.808Zm1.571,-2.06l-1.318,-0.921l-1.265,1.816l1.319,0.921c0.578,0.406 1.183,0.406 1.616,-0.217c0.434,-0.623 0.226,-1.192 -0.352,-1.599Zm2.375,5.112l-1.156,-0.966l-1.616,1.932l-0.316,-0.261l3.513,-4.191l1.598,1.337c0.687,0.569 0.867,1.4 0.262,2.131c-0.524,0.632 -1.237,0.714 -1.914,0.316l-0.614,2.782l-0.371,-0.307l0.614,-2.773Zm1.743,-1.915l-1.237,-1.038l-1.418,1.698l1.237,1.038c0.542,0.452 1.147,0.506 1.635,-0.072c0.488,-0.587 0.325,-1.165 -0.217,-1.626Zm2.556,1.798l0.298,0.289l-3.757,3.964l-0.298,-0.289l3.757,-3.964Zm-1.427,6.304l-0.289,-0.299l3.694,-3.504l-1.12,-1.183l0.271,-0.253l2.529,2.665l-0.271,0.252l-1.129,-1.183l-3.685,3.505Zm3.875,3.711c-1.051,-0.111 -1.827,-1.062 -1.725,-2.113c0.072,-0.704 0.451,-1.02 1.4,-1.788c0.957,-0.777 1.336,-1.075 2.041,-1.003c1.054,0.111 1.832,1.068 1.725,2.123c-0.073,0.704 -0.443,1.011 -1.4,1.788c-0.958,0.768 -1.346,1.066 -2.041,0.993Zm3.052,-2.908c0.037,-0.384 -0.08,-0.767 -0.325,-1.065c-0.243,-0.304 -0.597,-0.499 -0.984,-0.542c-0.551,-0.054 -0.903,0.189 -1.807,0.93c-0.903,0.731 -1.219,1.03 -1.273,1.58c-0.036,0.389 0.081,0.768 0.325,1.066c0.244,0.307 0.596,0.497 0.985,0.542c0.551,0.054 0.903,-0.19 1.806,-0.93c0.903,-0.732 1.219,-1.03 1.273,-1.581Zm2.014,1.454l0.244,0.334l-4.443,3.189l-0.244,-0.335l4.443,-3.188Zm-0.198,4.995l-0.804,-1.274l-2.132,1.337l-0.216,-0.352l4.633,-2.899l1.101,1.761c0.47,0.758 0.398,1.598 -0.406,2.104c-0.695,0.433 -1.4,0.298 -1.915,-0.28l-1.436,2.456l-0.252,-0.406l1.427,-2.447Zm2.248,-1.274l-0.858,-1.364l-1.869,1.175l0.858,1.363c0.379,0.596 0.93,0.84 1.58,0.434c0.633,-0.407 0.66,-1.012 0.289,-1.608Zm1.942,2.565l1.517,2.944l-0.325,0.172l-1.327,-2.574l-1.915,0.993l1.129,2.195l-0.325,0.172l-1.129,-2.195l-1.96,1.011l1.328,2.574l-0.325,0.172l-1.518,-2.944l4.85,-2.52Zm-2.438,7.659c-0.307,-0.741 -0.307,-1.301 -0.037,-1.96l0.38,0.153c-0.262,0.642 -0.244,1.075 0.009,1.68c0.334,0.804 0.921,1.138 1.58,0.858c0.307,-0.126 0.506,-0.316 0.596,-0.569c0.073,-0.253 0.082,-0.397 -0.036,-0.84l-0.153,-0.623c-0.1,-0.406 -0.109,-0.75 -0.009,-1.057c0.108,-0.352 0.361,-0.623 0.758,-0.785c0.849,-0.353 1.626,0.018 2.032,0.984c0.262,0.623 0.253,1.093 0.064,1.68l-0.353,-0.145c0.163,-0.415 0.199,-0.821 -0.045,-1.417c-0.307,-0.732 -0.885,-1.003 -1.526,-0.732c-0.289,0.117 -0.47,0.298 -0.551,0.542c-0.072,0.235 -0.063,0.578 0,0.885l0.144,0.578c0.136,0.497 0.136,0.759 0.046,1.039c-0.109,0.37 -0.389,0.677 -0.795,0.848c-0.858,0.353 -1.662,-0.063 -2.104,-1.119Z" style="fill:#03a14f;fill-rule:nonzero;"/><path d="M115.465,46.33l1.318,-0.424l0.425,1.318l-1.319,0.425l-0.424,-1.319Z" style="fill:#556f7b;fill-rule:nonzero;"/><path d="M116.72,50.873c-0.19,-0.786 -0.09,-1.337 0.28,-1.933l0.352,0.217c-0.361,0.596 -0.415,1.021 -0.262,1.662c0.199,0.84 0.732,1.264 1.427,1.102c0.325,-0.082 0.551,-0.226 0.678,-0.47c0.108,-0.235 0.144,-0.379 0.099,-0.84l-0.054,-0.641c-0.036,-0.415 0.018,-0.759 0.162,-1.039c0.163,-0.334 0.461,-0.551 0.876,-0.65c0.894,-0.217 1.608,0.28 1.852,1.301c0.153,0.659 0.081,1.119 -0.208,1.67l-0.325,-0.198c0.226,-0.389 0.334,-0.786 0.18,-1.409c-0.189,-0.777 -0.713,-1.129 -1.39,-0.967c-0.307,0.073 -0.515,0.217 -0.624,0.443c-0.108,0.226 -0.153,0.56 -0.135,0.867l0.045,0.596c0.054,0.515 0.009,0.768 -0.126,1.03c-0.172,0.352 -0.497,0.605 -0.921,0.713c-0.913,0.199 -1.635,-0.343 -1.906,-1.454Zm1.635,5.708c-0.416,-0.299 -0.691,-0.757 -0.759,-1.265c-0.08,-0.505 0.043,-1.022 0.343,-1.436c0.416,-0.568 0.903,-0.65 2.113,-0.839c1.22,-0.19 1.698,-0.253 2.267,0.162c0.416,0.298 0.687,0.75 0.759,1.265c0.081,0.505 -0.043,1.021 -0.343,1.435c-0.416,0.569 -0.894,0.651 -2.114,0.84c-1.21,0.19 -1.697,0.253 -2.266,-0.162Zm4.109,-0.967c0.235,-0.316 0.316,-0.704 0.262,-1.083c-0.056,-0.384 -0.264,-0.729 -0.578,-0.958c-0.443,-0.325 -0.876,-0.289 -2.032,-0.117c-1.156,0.181 -1.572,0.271 -1.897,0.723c-0.227,0.312 -0.322,0.702 -0.262,1.083c0.063,0.389 0.262,0.732 0.578,0.958c0.443,0.325 0.876,0.289 2.032,0.117c1.156,-0.172 1.572,-0.28 1.897,-0.723Zm1.029,2.367l0.027,0.415l-5.084,0.361l0.208,2.89l-0.371,0.027l-0.234,-3.305l5.454,-0.388Zm0.235,4.443l0.009,0.415l-5.464,0.109l-0.009,-0.416l5.464,-0.108Zm-5.066,5.184c-0.316,-0.343 -0.461,-0.813 -0.434,-1.382l0.081,-1.833l5.455,0.244l-0.081,1.833c-0.027,0.578 -0.217,1.03 -0.56,1.346c-0.578,0.524 -1.445,0.46 -2.176,0.433c-0.732,-0.027 -1.762,-0.063 -2.285,-0.641Zm4.181,-0.099c0.343,-0.298 0.452,-0.714 0.479,-1.156l0.063,-1.319l-4.723,-0.217l-0.064,1.319c-0.018,0.433 0.055,0.858 0.371,1.192c0.433,0.452 1.382,0.47 1.996,0.497c0.605,0.036 1.399,0.09 1.878,-0.316Zm-3.865,4.633l0.325,-2.529l-1.255,-0.641l0.054,-0.443l5.157,2.701l-0.046,0.361l-5.68,1.291l0.054,-0.442l1.391,-0.298Zm0.677,-2.348l-0.298,2.266l3.333,-0.722l-3.035,-1.544Zm3.089,4.813l-0.081,0.407l-5.365,-1.012l0.081,-0.406l5.365,1.011Zm-3.748,3.297l0.37,-1.454l-2.438,-0.624l0.099,-0.397l5.301,1.346l-0.514,2.014c-0.217,0.867 -0.885,1.39 -1.807,1.156c-0.794,-0.199 -1.183,-0.804 -1.12,-1.581l-2.772,0.659l0.117,-0.469l2.764,-0.65Zm2.474,0.74l0.398,-1.562l-2.141,-0.542l-0.397,1.562c-0.172,0.687 0.036,1.256 0.777,1.436c0.731,0.19 1.192,-0.207 1.363,-0.894Zm-0.523,3.179l-1.084,3.134l-0.352,-0.117l0.948,-2.746l-2.041,-0.704l-0.804,2.339l-0.352,-0.118l0.804,-2.339l-2.078,-0.722l-0.948,2.745l-0.352,-0.117l1.084,-3.134l5.175,1.779Z" style="fill:#95c11f;fill-rule:nonzero;"/><path d="M113.884,85.111l1.265,0.56l-0.56,1.264l-1.265,-0.56l0.56,-1.264Z" style="fill:#556f7b;fill-rule:nonzero;"/><path d="M12.201,60.771c1.635,-28.593 26.137,-50.439 54.73,-48.805c28.593,1.635 50.439,26.137 48.805,54.73c-1.635,28.593 -26.137,50.439 -54.73,48.805c-28.584,-1.635 -50.439,-26.137 -48.805,-54.73Z" style="fill:#169bd8;fill-opacity:0.54902;fill-rule:nonzero;"/><path d="M34.075,21.377c18.767,8.67 31.275,28.159 30.02,50.051c-0.939,16.41 -9.411,30.598 -21.865,39.404c-18.767,-8.67 -31.275,-28.16 -30.029,-50.052c0.939,-16.418 9.411,-30.607 21.874,-39.403Z" style="fill:#16428e;fill-opacity:0.54902;fill-rule:nonzero;"/><path d="M72.295,58.721c0.903,-15.705 8.697,-29.378 20.284,-38.238c14.866,9.853 24.24,27.121 23.157,46.204c-0.904,15.705 -8.698,29.378 -20.285,38.238c-14.865,-9.844 -24.24,-27.112 -23.156,-46.204Z" style="fill:#048d42;fill-opacity:0.54902;fill-rule:nonzero;"/><path d="M79.078,14.125c-9.429,16.599 -27.708,27.347 -48.065,26.181c-4.12,-0.235 -8.198,-0.96 -12.147,-2.158c9.438,-16.608 27.717,-27.347 48.074,-26.182c4.208,0.244 8.272,0.985 12.138,2.159Z" style="fill:#83bd45;fill-opacity:0.54902;fill-rule:nonzero;"/><path d="M21.82,93.925c8.651,-18.812 28.168,-31.356 50.087,-30.11c16.283,0.93 30.372,9.284 39.196,21.576c-8.652,18.812 -28.169,31.356 -50.088,30.101c-16.283,-0.921 -30.381,-9.275 -39.195,-21.567Z" style="fill:#0a67b1;fill-opacity:0.54902;fill-rule:nonzero;"/><path d="M115.528,58.215c-3.006,0.35 -6.037,0.441 -9.059,0.271c-25.712,-1.472 -45.978,-21.449 -48.597,-46.249c3.006,-0.349 6.037,-0.44 9.059,-0.271c25.721,1.473 45.978,21.45 48.597,46.249Z" style="fill:#d5da2c;fill-opacity:0.54902;fill-rule:nonzero;"/><path d="M102.956,29.55c-8.868,16.211 -27.319,27.076 -48.073,26.191c-14.459,-0.614 -27.175,-7.496 -36.026,-17.584c9.429,-16.608 27.717,-27.356 48.074,-26.191c14.45,0.831 27.175,7.496 36.025,17.584Z" style="fill:#03a14f;fill-opacity:0.54902;fill-rule:nonzero;"/><path d="M34.066,21.377c1.545,5.516 2.164,11.251 1.833,16.97c-0.939,16.41 -9.41,30.598 -21.864,39.394c-1.546,-5.516 -2.165,-11.251 -1.834,-16.97c0.939,-16.409 9.411,-30.589 21.865,-39.394Z" style="fill:#3dac48;fill-opacity:0.54902;fill-rule:nonzero;"/><path d="M62.307,112.259c1.616,-28.187 25.45,-49.817 53.51,-48.86c0.009,1.097 -0.018,2.193 -0.081,3.288c-1.617,28.186 -25.451,49.816 -53.511,48.859c-0.009,-1.096 0.019,-2.193 0.082,-3.287Z" style="fill:#1173ba;fill-opacity:0.54902;fill-rule:nonzero;"/><path d="M12.129,64.754c4.467,-0.93 9.037,-1.27 13.592,-1.011c27.256,1.562 48.38,23.896 48.877,50.746c-4.467,0.931 -9.037,1.271 -13.592,1.012c-27.247,-1.563 -48.38,-23.897 -48.877,-50.747Z" style="fill:#088ccd;fill-opacity:0.54902;fill-rule:nonzero;"/><path d="M115.257,71.374c-2.944,19.914 -17.205,36.143 -36.044,41.932l-35.854,-23.824c0,0 15.398,-9.582 16.356,-12.22c0.957,-2.637 -11.353,-40.216 -7.957,-42.004c3.396,-1.788 19.833,-9.438 19.833,-9.438l43.666,45.554Z" style="fill:#121212;fill-opacity:0.34902;fill-rule:nonzero;"/><path d="M63.932,115.835c16.175,0 30.616,-7.406 40.126,-19.02l-1.499,-1.906c0,0 3.405,-0.514 -0.533,-2.709c-3.938,-2.194 -3.938,-2.294 -4.823,-2.917c-0.885,-0.623 -3.17,-0.975 -3.368,-1.282c-0.19,-0.307 2.032,-1.247 -0.352,-2.005c-2.376,-0.759 -4.85,-1.716 -4.85,-1.716c0,0 1.246,-1.969 -0.235,-2.701c-1.481,-0.731 -2.971,-0.876 -3.278,-0.677c-0.307,0.19 -0.876,-0.822 -1.364,-1.328c-0.488,-0.514 -1.779,-0.74 -2.384,-0.659c-0.542,0.081 -4.2,-0.081 -5.022,-0.415l0.027,0.298l-0.189,-0.407c0.018,0.036 0.072,0.073 0.162,0.109c-0.117,-1.147 -0.533,-5.356 -0.515,-6.214c0.028,-1.002 0.434,-1.291 0.434,-1.291c0,0 5.681,0.542 5.283,-3.568c0,0 -0.56,-1.508 -0.334,-2.601c0,0 1.021,-0.578 0.271,-1.472c0,0 0.659,-0.505 0.307,-1.914c0,0 -0.19,-0.605 0.027,-1.202c0,0 2.186,-0.189 1.436,-1.661c-0.488,-0.967 -0.578,-0.714 -0.768,-1.319c-0.18,-0.605 -1.038,-2.321 -1.219,-3.125c-0.18,-0.803 1.057,-2.276 1.075,-2.971c0.018,-0.695 -0.84,-2.321 -1.021,-3.025c-0.18,-0.705 -1.038,-2.52 -1.21,-3.721c-0.171,-1.201 -0.713,-3.414 -1.102,-3.821c-0.388,-0.406 -0.966,-1.417 -1.147,-2.122c-0.18,-0.704 -1.246,-2.032 -1.544,-2.339c-0.289,-0.307 -2.547,-2.158 -4.823,-2.818c-2.284,-0.659 -2.871,-0.966 -4.271,-1.102c-1.391,-0.135 -2.195,0.046 -2.087,-0.352c0.109,-0.397 1.409,-0.262 2.8,-0.036c0.398,0.063 1.761,0.668 3.405,-0.217c1.418,-0.767 2.682,-3.431 -1.328,-6.927c-4.01,-3.495 -9.058,-1.119 -10.178,-0.55c-1.111,0.568 0,-0.1 -2.727,1.228c-2.728,1.327 -6.72,5.03 -7.605,8.706c-0.885,3.676 -0.09,3.694 -0.018,4.696c0.073,1.003 -0.153,2.195 -1.083,3.567c-0.931,1.373 -2.457,2.34 -1.301,4.164c1.156,1.824 0.334,2.502 -0.181,3.396c-0.523,0.885 -1.165,2.664 0.109,3.802c1.273,1.129 1.065,1.526 1.237,2.33c0.181,0.804 0.741,2.52 1.021,3.224c0.28,0.704 0.072,1.003 -0.055,2.195c-0.126,1.192 -0.93,1.372 -1.056,2.276c-0.118,0.894 -0.018,0.596 0.894,0.117c0.912,-0.479 -0.732,1.183 -0.75,1.978c-0.018,0.795 0.795,0.117 0.795,0.117c0,0 0.063,1.499 -0.542,1.788c-0.605,0.289 0.994,0.325 1.129,-1.372c0.145,-1.698 1.057,1.725 -1.075,3.269c-2.131,1.544 1.409,-0.47 1.409,-0.47l-0.524,1.084c0,0 1.906,-0.352 0.38,0.704c-1.527,1.066 -2.114,0.75 -2.114,0.75c0,0 -2.149,2.15 0.046,2.095c2.194,-0.045 0.984,0.524 1.472,1.238c0.478,0.713 1.95,1.743 2.745,2.068c0.795,0.316 5.121,0.569 5.121,0.569l-0.425,0.93c0,0 -6.43,-0.036 -8.733,0.406c-2.312,0.443 -3.739,1.707 -3.757,2.601c-0.018,0.894 0.063,1.4 -0.84,1.581c-0.903,0.18 -4.091,0 -5.13,1.273c-1.029,1.274 -1.336,1.662 -2.239,1.743c-0.903,0.082 -2.123,0.849 -2.24,1.644c-0.117,0.795 -0.253,1.996 -1.273,2.962c-1.021,0.976 -4.028,1.301 -4.579,3.486c-0.461,1.807 -0.307,3.902 -0.903,6.142c9.41,9.518 22.46,15.416 36.883,15.416Z" style="fill:#fff;fill-rule:nonzero;"/><path d="M38.392,101.06l0,5.942l-0.515,0l0,-6.836l0.515,0l3.947,5.924l0,-5.924l0.514,0l0,6.836l-0.514,0l-3.947,-5.942Zm8.634,5.997c-1.373,0 -2.339,-0.94 -2.339,-2.276l0,-4.615l0.514,0l0,4.551c0,1.129 0.723,1.879 1.825,1.879c1.102,0 1.824,-0.75 1.824,-1.879l0,-4.551l0.515,0l0,4.615c0,1.336 -0.966,2.276 -2.339,2.276Zm9.392,-5.69l-2.077,4.678l-0.515,0l-2.113,-4.678l0,5.635l-0.515,0l0,-6.836l0.515,0l2.384,5.274l2.321,-5.274l0.515,0l0,6.836l-0.515,0l0,-5.635Zm2.439,-1.201l4.145,0l0,0.46l-3.631,0l0,2.701l3.089,0l0,0.46l-3.089,0l0,2.755l3.631,0l0,0.46l-4.145,0l0,-6.836Zm1.508,-0.651l0.93,-1.408l0.641,0l-1.02,1.408l-0.551,0Zm6.439,4.335l-1.878,0l0,3.152l-0.515,0l0,-6.836l2.601,0c1.111,0 1.96,0.641 1.96,1.833c0,1.03 -0.614,1.68 -1.572,1.842l1.653,3.161l-0.605,0l-1.644,-3.152Zm0.136,-3.224l-2.014,0l0,2.764l2.014,0c0.885,0 1.508,-0.434 1.508,-1.382c0,-0.948 -0.623,-1.382 -1.508,-1.382Zm3.585,-0.46l0.515,0l0,6.836l-0.515,0l0,-6.836Zm6.024,6.376c-0.431,0.336 -0.962,0.517 -1.508,0.515c-0.64,0.003 -1.255,-0.251 -1.707,-0.705c-0.623,-0.623 -0.632,-1.237 -0.632,-2.773c0,-1.544 0.009,-2.149 0.632,-2.772c0.452,-0.454 1.067,-0.708 1.707,-0.705c0.65,0 1.255,0.253 1.707,0.705c0.623,0.623 0.632,1.228 0.632,2.772c0,1.4 -0.009,2.06 -0.488,2.611l0.804,0.803l-0.343,0.343l-0.804,-0.794Zm-0.217,-5.446c-0.346,-0.342 -0.814,-0.53 -1.3,-0.524c-0.488,0 -0.949,0.181 -1.301,0.524c-0.488,0.488 -0.524,1.029 -0.524,2.483c0,1.464 0.036,1.996 0.524,2.484c0.343,0.343 0.804,0.524 1.301,0.524c0.433,0 0.822,-0.136 1.165,-0.407l-0.958,-0.957l0.344,-0.343l0.948,0.948c0.307,-0.433 0.325,-1.029 0.325,-2.258c0.009,-1.445 -0.036,-1.986 -0.524,-2.474Zm4.94,5.961c-1.372,0 -2.339,-0.94 -2.339,-2.276l0,-4.615l0.515,0l0,4.551c0,1.129 0.722,1.879 1.824,1.879c1.102,0 1.825,-0.75 1.825,-1.879l0,-4.551l0.514,0l0,4.615c0,1.336 -0.966,2.276 -2.339,2.276Zm4.164,-6.891l4.145,0l0,0.46l-3.631,0l0,2.701l3.098,0l0,0.46l-3.088,0l0,2.755l3.63,0l0,0.46l-4.154,0l0,-6.836Zm-45.635,-9.203l0,1.996l3.215,0l0,1.418l-3.215,0l0,3.305l-1.59,0l0,-8.137l5.356,0l0,1.418l-3.766,0Zm9.103,6.719l-0.478,-1.436l-2.89,0l-0.488,1.436l-1.653,0l2.962,-8.137l1.247,0l2.971,8.137l-1.671,0Zm-1.896,-5.735l-1.03,2.962l2.023,0l-0.993,-2.962Zm7.965,5.735l-3.405,0l0,-8.137l3.27,0c1.589,0 2.51,0.894 2.51,2.285c0,0.903 -0.596,1.481 -1.002,1.68c0.488,0.225 1.12,0.74 1.12,1.824c-0.009,1.526 -1.048,2.348 -2.493,2.348Zm-0.271,-6.719l-1.553,0l0,1.869l1.553,0c0.678,0 1.048,-0.379 1.048,-0.939c0.009,-0.551 -0.37,-0.93 -1.048,-0.93Zm0.109,3.305l-1.653,0l0,1.996l1.653,0c0.722,0 1.065,-0.46 1.065,-1.002c-0.009,-0.551 -0.352,-0.994 -1.065,-0.994Zm8.588,3.414l-1.589,-3.242l-1.138,0l0,3.242l-1.59,0l0,-8.137l3.189,0c1.652,0 2.637,1.129 2.637,2.493c0,1.147 -0.696,1.851 -1.481,2.14l1.815,3.504l-1.843,0Zm-1.228,-6.719l-1.499,0l0,2.149l1.499,0c0.696,0 1.156,-0.442 1.156,-1.074c-0.009,-0.633 -0.46,-1.075 -1.156,-1.075Zm4.389,6.719l0,-8.137l1.59,0l0,8.137l-1.59,0Zm8.354,0.343l-0.722,-0.722c-0.461,0.298 -1.003,0.442 -1.644,0.442c-0.921,0 -1.635,-0.316 -2.204,-0.894c-0.821,-0.822 -0.803,-1.842 -0.803,-3.242c0,-1.409 -0.027,-2.42 0.803,-3.242c0.569,-0.569 1.283,-0.894 2.204,-0.894c0.93,0 1.626,0.316 2.195,0.894c0.822,0.822 0.812,1.842 0.812,3.242c0,1.219 0.01,2.122 -0.505,2.881l0.695,0.695l-0.831,0.84Zm-1.354,-6.701c-0.226,-0.262 -0.587,-0.433 -1.021,-0.433c-0.433,0 -0.804,0.171 -1.03,0.433c-0.307,0.343 -0.388,0.723 -0.388,2.285c0,1.562 0.081,1.942 0.388,2.285c0.226,0.262 0.597,0.433 1.03,0.433c0.185,0.006 0.368,-0.044 0.524,-0.144l-0.705,-0.696l0.849,-0.83l0.605,0.605c0.127,-0.353 0.145,-0.822 0.145,-1.644c0.009,-1.571 -0.09,-1.951 -0.397,-2.294Zm6.014,6.421c-1.67,0 -2.989,-1.129 -2.989,-2.854l0,-5.346l1.59,0l0,5.292c0,0.939 0.55,1.499 1.408,1.499c0.858,0 1.418,-0.56 1.418,-1.499l0,-5.292l1.581,0l0,5.346c-0.018,1.725 -1.337,2.854 -3.008,2.854Zm4.308,-0.063l0,-8.137l5.356,0l0,1.418l-3.775,0l0,1.905l3.215,0l0,1.418l-3.215,0l0,1.978l3.775,0l0,1.418l-5.356,0Zm-77.226,19.372l0,-2.05l-0.704,1.499l-0.353,0l-0.722,-1.499l0,2.05l-0.47,0l0,-3.071l0.47,0l0.894,1.906l0.876,-1.906l0.47,0l0,3.071l-0.461,0Zm1.346,0l0,-3.071l0.469,0l0,3.071l-0.469,0Zm3.233,0l-1.418,-2.158l0,2.158l-0.47,0l0,-3.071l0.425,0l1.427,2.159l0,-2.159l0.469,0l0,3.071l-0.433,0Zm1.318,0l0,-3.071l0.47,0l0,3.071l-0.47,0Zm2.168,0.027c-0.461,0 -0.795,-0.108 -1.084,-0.406l0.307,-0.307c0.226,0.226 0.47,0.289 0.786,0.289c0.397,0 0.632,-0.172 0.632,-0.47c0,-0.135 -0.036,-0.244 -0.117,-0.316c-0.082,-0.072 -0.154,-0.099 -0.334,-0.126l-0.362,-0.055c-0.253,-0.036 -0.451,-0.117 -0.578,-0.243c-0.153,-0.145 -0.225,-0.335 -0.225,-0.587c0,-0.533 0.388,-0.904 1.029,-0.904c0.407,0 0.687,0.1 0.948,0.353l-0.298,0.289c-0.189,-0.181 -0.406,-0.235 -0.668,-0.235c-0.361,0 -0.56,0.208 -0.56,0.478c0,0.109 0.036,0.208 0.118,0.28c0.099,0.079 0.218,0.129 0.343,0.145l0.352,0.054c0.28,0.045 0.442,0.108 0.569,0.226c0.172,0.144 0.253,0.37 0.253,0.632c-0.009,0.569 -0.47,0.903 -1.111,0.903Zm2.854,-2.673l0,2.646l-0.47,0l0,-2.646l-0.849,0l0,-0.415l2.159,0l0,0.415l-0.84,0Zm1.463,2.646l0,-3.071l1.96,0l0,0.416l-1.5,0l0,0.894l1.274,0l0,0.415l-1.274,0l0,0.922l1.5,0l0,0.415l-1.96,0l0,0.009Zm0.831,-3.36l-0.479,-0.695l0.488,0l0.325,0.695l-0.334,0Zm3.549,3.36l-0.65,-1.291l-0.578,0l0,1.291l-0.47,0l0,-3.071l1.192,0c0.578,0 0.949,0.38 0.949,0.895c0.016,0.382 -0.243,0.724 -0.615,0.812l0.705,1.355l-0.533,0l0,0.009Zm-0.542,-2.646l-0.686,0l0,0.957l0.686,0c0.307,0 0.524,-0.18 0.524,-0.478c0,-0.298 -0.217,-0.479 -0.524,-0.479Zm1.752,2.646l0,-3.071l1.96,0l0,0.416l-1.499,0l0,0.894l1.282,0l0,0.415l-1.273,0l0,0.922l1.499,0l0,0.415l-1.969,0l0,0.009Zm5.681,-0.289c-0.19,0.19 -0.47,0.289 -0.795,0.289l-1.075,0l0,-3.071l1.075,0c0.316,0 0.596,0.1 0.795,0.289c0.334,0.335 0.307,0.777 0.307,1.22c0,0.451 0.018,0.948 -0.307,1.273Zm-0.325,-2.149c-0.127,-0.145 -0.298,-0.208 -0.524,-0.208l-0.56,0l0,2.231l0.56,0c0.196,0.01 0.388,-0.066 0.524,-0.208c0.162,-0.181 0.162,-0.506 0.162,-0.93c0,-0.425 0,-0.714 -0.162,-0.885Zm1.409,2.438l0,-3.071l1.959,0l0,0.416l-1.499,0l0,0.894l1.274,0l0,0.415l-1.274,0l0,0.922l1.499,0l0,0.415l-1.959,0l0,0.009Zm3.802,0l0,-3.071l0.469,0l0,2.647l1.482,0l0,0.415l-1.951,0l0,0.009Zm4.326,0l-0.208,-0.614l-1.21,0l-0.208,0.614l-0.506,0l1.129,-3.071l0.38,0l1.129,3.071l-0.506,0Zm-0.804,-2.366l-0.479,1.364l0.94,0l-0.461,-1.364Zm3.983,-0.28l0,2.646l-0.47,0l0,-2.646l-0.849,0l0,-0.415l2.159,0l0,0.415l-0.84,0Zm3.152,2.646l-0.651,-1.291l-0.578,0l0,1.291l-0.46,0l0,-3.071l1.192,0c0.578,0 0.948,0.38 0.948,0.895c0.016,0.381 -0.243,0.724 -0.614,0.812l0.705,1.355l-0.542,0l0,0.009Zm-0.542,-2.646l-0.687,0l0,0.957l0.687,0c0.307,0 0.524,-0.18 0.524,-0.478c0,-0.298 -0.208,-0.479 -0.524,-0.479Zm3.522,2.646l-0.208,-0.614l-1.21,0l-0.208,0.614l-0.496,0l1.129,-3.071l0.379,0l1.129,3.071l-0.515,0Zm-0.804,-2.366l-0.478,1.364l0.939,0l-0.461,-1.364Zm3.703,2.366l-1.418,-2.158l0,2.158l-0.46,0l0,-3.071l0.424,0l1.418,2.159l0,-2.159l0.47,0l0,3.071l-0.434,0Zm2.131,0.027c-0.46,0 -0.794,-0.108 -1.083,-0.406l0.307,-0.307c0.226,0.226 0.469,0.289 0.785,0.289c0.398,0 0.633,-0.172 0.633,-0.47c0,-0.135 -0.036,-0.244 -0.118,-0.316c-0.081,-0.072 -0.153,-0.099 -0.334,-0.126l-0.361,-0.055c-0.253,-0.036 -0.452,-0.117 -0.578,-0.243c-0.154,-0.145 -0.226,-0.335 -0.226,-0.587c0,-0.533 0.388,-0.904 1.03,-0.904c0.406,0 0.686,0.1 0.948,0.353l-0.298,0.289c-0.19,-0.181 -0.407,-0.235 -0.668,-0.235c-0.362,0 -0.56,0.208 -0.56,0.478c0,0.109 0.036,0.208 0.117,0.28c0.099,0.078 0.218,0.129 0.343,0.145l0.352,0.054c0.28,0.045 0.443,0.108 0.569,0.226c0.172,0.144 0.253,0.37 0.253,0.632c-0.009,0.569 -0.469,0.903 -1.111,0.903Zm1.816,-0.027l0,-3.071l0.469,0l0,3.071l-0.469,0Zm2.393,-2.646l0,2.646l-0.47,0l0,-2.646l-0.849,0l0,-0.415l2.159,0l0,0.415l-0.84,0Zm1.454,2.646l0,-3.071l0.47,0l0,3.071l-0.47,0Zm3.161,-0.298c-0.215,0.215 -0.509,0.333 -0.813,0.325c-0.325,0 -0.596,-0.117 -0.804,-0.325c-0.298,-0.298 -0.298,-0.641 -0.298,-1.228c0,-0.587 0,-0.93 0.298,-1.228c0.208,-0.208 0.479,-0.326 0.804,-0.326c0.325,0 0.596,0.118 0.813,0.326c0.298,0.298 0.289,0.641 0.289,1.228c0,0.587 0.009,0.93 -0.289,1.228Zm-0.352,-2.185c-0.121,-0.124 -0.288,-0.193 -0.461,-0.19c-0.173,-0.002 -0.339,0.066 -0.46,0.19c-0.154,0.162 -0.181,0.334 -0.181,0.948c0,0.614 0.027,0.786 0.181,0.948c0.108,0.117 0.28,0.19 0.46,0.19c0.173,0.002 0.34,-0.067 0.461,-0.19c0.153,-0.162 0.18,-0.334 0.18,-0.948c0,-0.614 -0.036,-0.786 -0.18,-0.948Zm3.305,2.483l-1.418,-2.158l0,2.158l-0.469,0l0,-3.071l0.424,0l1.418,2.159l0,-2.159l0.47,0l0,3.071l-0.425,0Zm2.43,0l0,-3.071l1.959,0l0,0.416l-1.499,0l0,0.894l1.283,0l0,0.415l-1.274,0l0,0.922l1.499,0l0,0.415l-1.968,0l0,0.009Zm1.047,-3.36l-0.334,0l0.325,-0.695l0.488,0l-0.479,0.695Zm2.628,3.387c-0.316,0 -0.596,-0.117 -0.803,-0.325c-0.299,-0.298 -0.299,-0.641 -0.299,-1.228c0,-0.587 0,-0.93 0.299,-1.228c0.207,-0.208 0.487,-0.326 0.803,-0.326c0.569,0 0.985,0.335 1.093,0.94l-0.47,0c-0.072,-0.307 -0.28,-0.524 -0.623,-0.524c-0.17,-0.002 -0.334,0.067 -0.451,0.19c-0.154,0.162 -0.19,0.343 -0.19,0.957c0,0.614 0.036,0.795 0.19,0.957c0.117,0.123 0.281,0.192 0.451,0.19c0.343,0 0.551,-0.217 0.623,-0.524l0.47,0c-0.099,0.596 -0.533,0.921 -1.093,0.921Zm3.604,-0.325c-0.215,0.215 -0.509,0.333 -0.813,0.325c-0.325,0 -0.596,-0.117 -0.804,-0.325c-0.298,-0.298 -0.298,-0.641 -0.298,-1.228c0,-0.587 0,-0.93 0.298,-1.228c0.208,-0.208 0.479,-0.326 0.804,-0.326c0.325,0 0.596,0.118 0.813,0.326c0.298,0.298 0.289,0.641 0.289,1.228c0.009,0.587 0.018,0.93 -0.289,1.228Zm-0.352,-2.185c-0.121,-0.124 -0.288,-0.193 -0.461,-0.19c-0.173,-0.003 -0.34,0.066 -0.461,0.19c-0.153,0.162 -0.18,0.334 -0.18,0.948c0,0.614 0.027,0.786 0.18,0.948c0.109,0.117 0.28,0.19 0.461,0.19c0.173,0.002 0.34,-0.067 0.461,-0.19c0.153,-0.162 0.18,-0.334 0.18,-0.948c0,-0.614 -0.027,-0.786 -0.18,-0.948Zm1.426,2.483l0,-3.071l0.47,0l0,2.647l1.481,0l0,0.415l-1.951,0l0,0.009Zm4.245,-0.298c-0.215,0.215 -0.509,0.333 -0.813,0.325c-0.325,0 -0.596,-0.117 -0.803,-0.325c-0.298,-0.298 -0.298,-0.641 -0.298,-1.228c0,-0.587 0,-0.93 0.298,-1.228c0.212,-0.214 0.502,-0.332 0.803,-0.326c0.325,0 0.596,0.118 0.813,0.326c0.298,0.298 0.289,0.641 0.289,1.228c0.009,0.587 0.018,0.93 -0.289,1.228Zm-0.352,-2.185c-0.121,-0.124 -0.288,-0.193 -0.461,-0.19c-0.173,-0.002 -0.339,0.066 -0.46,0.19c-0.154,0.162 -0.181,0.334 -0.181,0.948c0,0.614 0.027,0.786 0.181,0.948c0.108,0.117 0.28,0.19 0.46,0.19c0.173,0.002 0.34,-0.066 0.461,-0.19c0.153,-0.162 0.181,-0.334 0.181,-0.948c0,-0.614 -0.028,-0.786 -0.181,-0.948Zm3.26,2.167c-0.22,0.232 -0.529,0.36 -0.849,0.352c-0.316,0 -0.596,-0.117 -0.803,-0.325c-0.299,-0.298 -0.299,-0.641 -0.299,-1.228c0,-0.587 0,-0.93 0.299,-1.228c0.212,-0.214 0.502,-0.332 0.803,-0.326c0.651,0 1.03,0.425 1.12,0.949l-0.469,0c-0.082,-0.334 -0.298,-0.533 -0.651,-0.533c-0.17,-0.002 -0.334,0.067 -0.451,0.19c-0.154,0.162 -0.19,0.334 -0.19,0.948c0,0.614 0.036,0.795 0.19,0.957c0.117,0.123 0.281,0.192 0.451,0.19c0.199,0 0.38,-0.081 0.497,-0.217c0.108,-0.126 0.154,-0.28 0.154,-0.479l0,-0.171l-0.651,0l0,-0.398l1.12,0l0,0.47c0,0.379 -0.072,0.632 -0.271,0.849Zm1.048,0.316l0,-3.071l0.469,0l0,3.071l-0.469,0Zm3.287,0.145l-0.307,-0.307c-0.18,0.126 -0.397,0.189 -0.641,0.189c-0.325,0 -0.596,-0.117 -0.804,-0.325c-0.298,-0.298 -0.298,-0.641 -0.298,-1.228c0,-0.587 0,-0.93 0.298,-1.228c0.208,-0.208 0.479,-0.326 0.804,-0.326c0.325,0 0.596,0.118 0.813,0.326c0.298,0.298 0.289,0.641 0.289,1.228c0,0.524 0,0.84 -0.199,1.12l0.298,0.298l-0.253,0.253Zm-0.487,-2.628c-0.121,-0.124 -0.288,-0.193 -0.461,-0.19c-0.173,-0.003 -0.34,0.066 -0.461,0.19c-0.153,0.162 -0.18,0.334 -0.18,0.948c0,0.614 0.027,0.786 0.18,0.948c0.109,0.117 0.28,0.19 0.461,0.19c0.113,0 0.224,-0.034 0.316,-0.1l-0.325,-0.325l0.262,-0.262l0.298,0.298c0.081,-0.153 0.09,-0.361 0.09,-0.758c0,-0.605 -0.027,-0.777 -0.18,-0.939Zm2.474,2.51c-0.623,0 -1.102,-0.424 -1.102,-1.056l0,-2.032l0.47,0l0,2.013c0,0.407 0.253,0.66 0.632,0.66c0.379,0 0.641,-0.253 0.641,-0.66l0,-2.013l0.47,0l0,2.032c-0.009,0.632 -0.488,1.056 -1.111,1.056Zm1.942,-0.027l0,-3.071l1.96,0l0,0.416l-1.5,0l0,0.894l1.274,0l0,0.415l-1.274,0l0,0.922l1.5,0l0,0.415l-1.96,0l0,0.009Zm3.811,0l0,-3.071l1.96,0l0,0.416l-1.499,0l0,0.894l1.273,0l0,0.415l-1.273,0l0,0.922l1.499,0l0,0.415l-1.96,0l0,0.009Zm3.721,-2.646l0,2.646l-0.47,0l0,-2.646l-0.849,0l0,-0.415l2.159,0l0,0.415l-0.84,0Zm3.396,2.673c-0.461,0 -0.795,-0.108 -1.084,-0.406l0.307,-0.307c0.226,0.226 0.47,0.289 0.786,0.289c0.397,0 0.632,-0.172 0.632,-0.47c0,-0.135 -0.036,-0.244 -0.118,-0.316c-0.081,-0.072 -0.153,-0.099 -0.334,-0.126l-0.361,-0.055c-0.253,-0.036 -0.451,-0.117 -0.578,-0.243c-0.153,-0.145 -0.226,-0.335 -0.226,-0.587c0,-0.533 0.389,-0.904 1.03,-0.904c0.406,0 0.686,0.1 0.948,0.353l-0.298,0.289c-0.19,-0.181 -0.406,-0.235 -0.668,-0.235c-0.361,0 -0.56,0.208 -0.56,0.478c0,0.109 0.036,0.208 0.117,0.28c0.099,0.078 0.218,0.128 0.343,0.145l0.353,0.054c0.28,0.045 0.442,0.108 0.569,0.226c0.171,0.144 0.253,0.37 0.253,0.632c-0.01,0.569 -0.47,0.903 -1.111,0.903Zm3.612,-0.325c-0.215,0.215 -0.509,0.333 -0.813,0.325c-0.325,0 -0.596,-0.117 -0.803,-0.325c-0.298,-0.298 -0.298,-0.641 -0.298,-1.228c0,-0.587 0,-0.93 0.298,-1.228c0.212,-0.214 0.502,-0.332 0.803,-0.326c0.325,0 0.596,0.118 0.813,0.326c0.298,0.298 0.289,0.641 0.289,1.228c0.009,0.587 0.018,0.93 -0.289,1.228Zm-0.352,-2.185c-0.121,-0.124 -0.288,-0.193 -0.461,-0.19c-0.173,-0.002 -0.339,0.066 -0.46,0.19c-0.154,0.162 -0.181,0.334 -0.181,0.948c0,0.614 0.027,0.786 0.181,0.948c0.108,0.117 0.28,0.19 0.46,0.19c0.173,0.002 0.34,-0.066 0.461,-0.19c0.153,-0.162 0.181,-0.334 0.181,-0.948c0,-0.614 -0.028,-0.786 -0.181,-0.948Zm1.427,2.483l0,-3.071l0.47,0l0,2.647l1.481,0l0,0.415l-1.951,0l0,0.009Zm2.556,0l0,-3.071l0.469,0l0,3.071l-0.469,0Zm3.224,-0.289c-0.19,0.19 -0.47,0.289 -0.795,0.289l-1.075,0l0,-3.071l1.075,0c0.316,0 0.596,0.1 0.795,0.289c0.334,0.335 0.307,0.777 0.307,1.22c0,0.451 0.027,0.948 -0.307,1.273Zm-0.316,-2.149c-0.127,-0.145 -0.298,-0.208 -0.524,-0.208l-0.569,0l0,2.231l0.569,0c0.196,0.01 0.388,-0.066 0.524,-0.208c0.162,-0.181 0.162,-0.506 0.162,-0.93c0,-0.425 -0.009,-0.714 -0.162,-0.885Zm3.125,2.438l-0.208,-0.614l-1.21,0l-0.208,0.614l-0.497,0l1.129,-3.071l0.379,0l1.129,3.071l-0.514,0Zm-0.804,-2.366l-0.479,1.364l0.939,0l-0.46,-1.364Zm1.824,2.366l0,-3.071l0.47,0l0,3.071l-0.47,0Zm3.044,0l-0.651,-1.291l-0.578,0l0,1.291l-0.469,0l0,-3.071l1.192,0c0.578,0 0.948,0.38 0.948,0.895c0.016,0.381 -0.243,0.724 -0.614,0.812l0.705,1.355l-0.533,0l0,0.009Zm-0.542,-2.646l-0.687,0l0,0.957l0.687,0c0.307,0 0.524,-0.18 0.524,-0.478c0,-0.298 -0.208,-0.479 -0.524,-0.479Zm1.752,2.646l0,-3.071l1.96,0l0,0.416l-1.5,0l0,0.894l1.274,0l0,0.415l-1.274,0l0,0.922l1.5,0l0,0.415l-1.96,0l0,0.009Zm-104.257,5.482l0,-2.05l-0.704,1.499l-0.344,0l-0.722,-1.499l0,2.05l-0.47,0l0,-3.071l0.47,0l0.894,1.906l0.876,-1.906l0.47,0l0,3.071l-0.47,0Zm1.355,0l0,-3.071l0.469,0l0,3.071l-0.469,0Zm3.233,0l-1.418,-2.158l0,2.158l-0.47,0l0,-3.071l0.425,0l1.418,2.159l0,-2.159l0.469,0l0,3.071l-0.424,0Zm1.318,0l0,-3.071l0.47,0l0,3.071l-0.47,0Zm2.168,0.027c-0.461,0 -0.795,-0.108 -1.084,-0.406l0.307,-0.307c0.226,0.225 0.47,0.289 0.786,0.289c0.397,0 0.632,-0.172 0.632,-0.47c0,-0.135 -0.036,-0.244 -0.117,-0.316c-0.081,-0.072 -0.154,-0.099 -0.334,-0.126l-0.362,-0.055c-0.252,-0.036 -0.451,-0.117 -0.578,-0.243c-0.153,-0.145 -0.225,-0.335 -0.225,-0.588c0,-0.532 0.388,-0.903 1.029,-0.903c0.407,0 0.687,0.1 0.948,0.353l-0.298,0.289c-0.189,-0.181 -0.406,-0.235 -0.668,-0.235c-0.361,0 -0.56,0.207 -0.56,0.478c0,0.109 0.036,0.208 0.118,0.28c0.099,0.079 0.218,0.129 0.343,0.145l0.352,0.054c0.28,0.045 0.443,0.108 0.569,0.226c0.172,0.144 0.253,0.37 0.253,0.632c-0.009,0.56 -0.47,0.903 -1.111,0.903Zm2.854,-2.682l0,2.646l-0.47,0l0,-2.646l-0.849,0l0,-0.416l2.159,0l0,0.416l-0.84,0Zm1.463,2.655l0,-3.071l1.96,0l0,0.416l-1.499,0l0,0.894l1.273,0l0,0.415l-1.273,0l0,0.922l1.499,0l0,0.415l-1.96,0l0,0.009Zm0.831,-3.369l-0.479,-0.695l0.488,0l0.325,0.695l-0.334,0Zm3.54,3.369l-0.65,-1.291l-0.578,0l0,1.291l-0.47,0l0,-3.071l1.201,0c0.578,0 0.949,0.38 0.949,0.895c0.016,0.382 -0.243,0.724 -0.615,0.812l0.705,1.355l-0.542,0l0,0.009Zm-0.533,-2.655l-0.686,0l0,0.957l0.686,0c0.307,0 0.524,-0.18 0.524,-0.478c0,-0.298 -0.217,-0.479 -0.524,-0.479Zm1.752,2.655l0,-3.071l1.96,0l0,0.416l-1.499,0l0,0.894l1.273,0l0,0.415l-1.273,0l0,0.922l1.499,0l0,0.415l-1.96,0l0,0.009Zm5.681,-0.289c-0.19,0.19 -0.47,0.289 -0.795,0.289l-1.075,0l0,-3.071l1.075,0c0.316,0 0.596,0.1 0.795,0.289c0.334,0.335 0.307,0.777 0.307,1.22c0,0.451 0.018,0.939 -0.307,1.273Zm-0.325,-2.158c-0.127,-0.145 -0.298,-0.208 -0.524,-0.208l-0.56,0l0,2.231l0.56,0c0.196,0.01 0.388,-0.066 0.524,-0.208c0.162,-0.181 0.162,-0.506 0.162,-0.93c0,-0.425 0,-0.705 -0.162,-0.885Zm1.409,2.447l0,-3.071l1.959,0l0,0.416l-1.499,0l0,0.894l1.274,0l0,0.415l-1.274,0l0,0.922l1.499,0l0,0.415l-1.959,0l0,0.009Zm3.802,0l0,-3.071l0.469,0l0,2.647l1.482,0l0,0.415l-1.951,0l0,0.009Zm4.326,0l-0.208,-0.614l-1.21,0l-0.208,0.614l-0.497,0l1.129,-3.071l0.38,0l1.129,3.071l-0.515,0Zm-0.804,-2.375l-0.479,1.364l0.94,0l-0.461,-1.364Zm3.929,2.402c-0.316,0 -0.596,-0.117 -0.804,-0.325c-0.298,-0.298 -0.298,-0.641 -0.298,-1.228c0,-0.587 0,-0.93 0.298,-1.228c0.208,-0.208 0.488,-0.326 0.804,-0.326c0.569,0 0.984,0.335 1.092,0.94l-0.469,0c-0.072,-0.307 -0.28,-0.524 -0.623,-0.524c-0.171,-0.003 -0.335,0.066 -0.452,0.19c-0.153,0.162 -0.19,0.343 -0.19,0.957c0,0.614 0.037,0.795 0.19,0.957c0.117,0.124 0.281,0.193 0.452,0.19c0.343,0 0.551,-0.217 0.623,-0.524l0.469,0c-0.099,0.587 -0.532,0.921 -1.092,0.921Zm3.603,-0.334c-0.215,0.215 -0.509,0.333 -0.813,0.325c-0.325,0 -0.596,-0.117 -0.803,-0.325c-0.299,-0.298 -0.299,-0.641 -0.299,-1.228c0,-0.587 0,-0.93 0.299,-1.228c0.212,-0.214 0.502,-0.332 0.803,-0.326c0.325,0 0.596,0.118 0.813,0.326c0.298,0.298 0.289,0.641 0.289,1.228c0.009,0.587 0.018,0.93 -0.289,1.228Zm-0.352,-2.177c-0.121,-0.123 -0.288,-0.192 -0.461,-0.189c-0.173,-0.002 -0.339,0.066 -0.46,0.189c-0.154,0.163 -0.181,0.335 -0.181,0.949c0,0.614 0.027,0.785 0.181,0.948c0.108,0.117 0.28,0.19 0.46,0.19c0.173,0.002 0.34,-0.066 0.461,-0.19c0.153,-0.163 0.181,-0.334 0.181,-0.948c0,-0.614 -0.028,-0.786 -0.181,-0.949Zm3.134,2.484l0,-1.337l-1.247,0l0,1.337l-0.469,0l0,-3.071l0.469,0l0,1.31l1.247,0l0,-1.31l0.469,0l0,3.071l-0.469,0Zm1.354,0l0,-3.071l1.96,0l0,0.416l-1.499,0l0,0.894l1.273,0l0,0.415l-1.273,0l0,0.922l1.499,0l0,0.415l-1.96,0l0,0.009Zm1.048,-3.369l-0.334,0l0.325,-0.695l0.488,0l-0.479,0.695Zm2.457,3.396c-0.461,0 -0.795,-0.108 -1.084,-0.406l0.307,-0.307c0.226,0.225 0.469,0.289 0.786,0.289c0.397,0 0.632,-0.172 0.632,-0.47c0,-0.135 -0.036,-0.244 -0.118,-0.316c-0.081,-0.072 -0.153,-0.099 -0.334,-0.126l-0.361,-0.055c-0.253,-0.036 -0.452,-0.117 -0.578,-0.243c-0.154,-0.145 -0.226,-0.335 -0.226,-0.588c0,-0.532 0.389,-0.903 1.03,-0.903c0.406,0 0.686,0.1 0.948,0.353l-0.298,0.289c-0.19,-0.181 -0.406,-0.235 -0.668,-0.235c-0.362,0 -0.56,0.207 -0.56,0.478c0,0.109 0.036,0.208 0.117,0.28c0.099,0.078 0.218,0.129 0.343,0.145l0.353,0.054c0.28,0.045 0.442,0.108 0.569,0.226c0.171,0.144 0.252,0.37 0.252,0.632c-0.009,0.56 -0.469,0.903 -1.11,0.903Zm1.806,-0.027l0,-3.071l0.469,0l0,3.071l-0.469,0Zm3.161,-0.307c-0.215,0.215 -0.509,0.333 -0.813,0.325c-0.325,0 -0.596,-0.117 -0.804,-0.325c-0.298,-0.298 -0.298,-0.641 -0.298,-1.228c0,-0.587 0,-0.93 0.298,-1.228c0.208,-0.208 0.479,-0.326 0.804,-0.326c0.325,0 0.596,0.118 0.813,0.326c0.298,0.298 0.289,0.641 0.289,1.228c0,0.587 0.009,0.93 -0.289,1.228Zm-0.352,-2.177c-0.121,-0.123 -0.288,-0.191 -0.461,-0.189c-0.173,-0.002 -0.34,0.066 -0.461,0.189c-0.153,0.163 -0.18,0.335 -0.18,0.949c0,0.614 0.027,0.785 0.18,0.948c0.109,0.117 0.28,0.19 0.461,0.19c0.173,0.002 0.34,-0.067 0.461,-0.19c0.153,-0.163 0.18,-0.334 0.18,-0.948c0,-0.614 -0.036,-0.786 -0.18,-0.949Zm3.305,2.484l-1.418,-2.158l0,2.158l-0.47,0l0,-3.071l0.425,0l1.418,2.159l0,-2.159l0.469,0l0,3.071l-0.424,0Zm4.299,-0.289c-0.19,0.19 -0.47,0.289 -0.795,0.289l-1.075,0l0,-3.071l1.075,0c0.316,0 0.596,0.1 0.795,0.289c0.334,0.335 0.307,0.777 0.307,1.22c0.009,0.451 0.027,0.939 -0.307,1.273Zm-0.316,-2.158c-0.127,-0.145 -0.298,-0.208 -0.524,-0.208l-0.569,0l0,2.231l0.569,0c0.196,0.01 0.388,-0.066 0.524,-0.208c0.162,-0.181 0.162,-0.506 0.162,-0.93c0,-0.425 0,-0.705 -0.162,-0.885Zm1.409,2.447l0,-3.071l1.959,0l0,0.416l-1.499,0l0,0.894l1.274,0l0,0.415l-1.274,0l0,0.922l1.499,0l0,0.415l-1.959,0l0,0.009Zm3.495,0.027c-0.461,0 -0.795,-0.108 -1.084,-0.406l0.307,-0.307c0.226,0.225 0.47,0.289 0.786,0.289c0.397,0 0.632,-0.172 0.632,-0.47c0,-0.135 -0.036,-0.244 -0.117,-0.316c-0.082,-0.072 -0.154,-0.099 -0.335,-0.126l-0.361,-0.055c-0.253,-0.036 -0.451,-0.117 -0.578,-0.243c-0.153,-0.145 -0.226,-0.335 -0.226,-0.588c0,-0.532 0.389,-0.903 1.03,-0.903c0.406,0 0.686,0.1 0.948,0.353l-0.298,0.289c-0.19,-0.181 -0.406,-0.235 -0.668,-0.235c-0.361,0 -0.56,0.207 -0.56,0.478c0,0.109 0.036,0.208 0.117,0.28c0.099,0.078 0.218,0.128 0.343,0.145l0.353,0.054c0.28,0.045 0.442,0.108 0.569,0.226c0.171,0.144 0.253,0.37 0.253,0.632c-0.009,0.56 -0.47,0.903 -1.111,0.903Zm3.973,-2.682l0,2.646l-0.46,0l0,-2.646l-0.849,0l0,-0.416l2.158,0l0,0.416l-0.849,0Zm1.464,2.655l0,-3.071l1.959,0l0,0.416l-1.499,0l0,0.894l1.274,0l0,0.415l-1.274,0l0,0.922l1.499,0l0,0.415l-1.959,0l0,0.009Zm4.38,0l-0.651,-1.291l-0.578,0l0,1.291l-0.469,0l0,-3.071l1.192,0c0.578,0 0.948,0.38 0.948,0.895c0.016,0.381 -0.243,0.724 -0.614,0.812l0.705,1.355l-0.533,0l0,0.009Zm-0.542,-2.655l-0.687,0l0,0.957l0.687,0c0.307,0 0.524,-0.18 0.524,-0.478c0,-0.298 -0.208,-0.479 -0.524,-0.479Zm3.45,2.655l-0.65,-1.291l-0.578,0l0,1.291l-0.47,0l0,-3.071l1.192,0c0.578,0 0.948,0.38 0.948,0.895c0.016,0.381 -0.243,0.724 -0.614,0.812l0.705,1.355l-0.533,0l0,0.009Zm-0.542,-2.655l-0.686,0l0,0.957l0.686,0c0.307,0 0.524,-0.18 0.524,-0.478c0,-0.298 -0.208,-0.479 -0.524,-0.479Zm1.761,2.655l0,-3.071l0.47,0l0,3.071l-0.47,0Zm2.384,-2.655l0,2.646l-0.469,0l0,-2.646l-0.849,0l0,-0.416l2.158,0l0,0.416l-0.84,0Zm3.179,2.348c-0.215,0.215 -0.509,0.333 -0.813,0.325c-0.325,0 -0.596,-0.117 -0.803,-0.325c-0.298,-0.298 -0.298,-0.641 -0.298,-1.228c0,-0.587 0,-0.93 0.298,-1.228c0.212,-0.214 0.502,-0.332 0.803,-0.326c0.326,0 0.596,0.118 0.813,0.326c0.298,0.298 0.289,0.641 0.289,1.228c0.009,0.587 0.018,0.93 -0.289,1.228Zm-0.352,-2.177c-0.121,-0.123 -0.288,-0.192 -0.461,-0.189c-0.173,-0.002 -0.339,0.066 -0.46,0.189c-0.154,0.163 -0.181,0.335 -0.181,0.949c0,0.614 0.027,0.785 0.181,0.948c0.108,0.117 0.28,0.19 0.46,0.19c0.173,0.002 0.34,-0.066 0.461,-0.19c0.154,-0.163 0.181,-0.334 0.181,-0.948c0,-0.614 -0.027,-0.786 -0.181,-0.949Zm1.427,2.484l0,-3.071l0.47,0l0,3.071l-0.47,0Zm3.043,0l-0.65,-1.291l-0.578,0l0,1.291l-0.469,0l0,-3.071l1.192,0c0.578,0 0.948,0.38 0.948,0.895c0.016,0.381 -0.243,0.724 -0.614,0.812l0.704,1.355l-0.533,0l0,0.009Zm-0.541,-2.655l-0.687,0l0,0.957l0.687,0c0.307,0 0.523,-0.18 0.523,-0.478c0,-0.298 -0.207,-0.479 -0.523,-0.479Zm1.761,2.655l0,-3.071l1.959,0l0,0.416l-1.499,0l0,0.894l1.274,0l0,0.415l-1.274,0l0,0.922l1.499,0l0,0.415l-1.959,0l0,0.009Zm3.495,0.027c-0.461,0 -0.795,-0.108 -1.084,-0.406l0.307,-0.307c0.226,0.225 0.47,0.289 0.786,0.289c0.397,0 0.632,-0.172 0.632,-0.47c0,-0.135 -0.036,-0.244 -0.117,-0.316c-0.082,-0.072 -0.154,-0.099 -0.335,-0.126l-0.361,-0.055c-0.253,-0.036 -0.451,-0.117 -0.578,-0.243c-0.153,-0.145 -0.226,-0.335 -0.226,-0.588c0,-0.532 0.389,-0.903 1.03,-0.903c0.406,0 0.686,0.1 0.948,0.353l-0.298,0.289c-0.189,-0.181 -0.406,-0.235 -0.668,-0.235c-0.361,0 -0.56,0.207 -0.56,0.478c0,0.109 0.036,0.208 0.117,0.28c0.099,0.078 0.218,0.129 0.344,0.145l0.352,0.054c0.28,0.045 0.442,0.108 0.569,0.226c0.171,0.144 0.253,0.37 0.253,0.632c-0.009,0.56 -0.47,0.903 -1.111,0.903Z" style="fill:#556f7b;fill-rule:nonzero;"/></g></svg>